<?xml version="1.0" encoding="UTF-8"?>
<svg version="1.1" xmlns="http://www.w3.org/2000/svg" width="545" height="422">
<path d="M0 0 C20.13 -0.061875 40.26 -0.12375 61 -0.1875 C67.32800781 -0.21481201 73.65601562 -0.24212402 80.17578125 -0.27026367 C87.97460937 -0.28381348 87.97460937 -0.28381348 91.6394043 -0.28633118 C94.16871734 -0.29090184 96.69802433 -0.30137716 99.22729492 -0.31672668 C141.6726751 -0.56117257 141.6726751 -0.56117257 155.875 12.125 C168.5160756 26.27683829 168.97785294 46.0674388 168 64 C167.15714485 74.53568934 164.14734658 85.63876334 156.7578125 93.53125 C153.49895071 96.25421007 149.81070384 98.16239392 146 100 C148.31364293 101.54242862 150.38604485 102.7031573 152.875 103.875 C161.07595555 107.98297408 165.55387192 113.62120013 168.6875 122.1875 C174.43616584 141.52392148 174.92904287 166.97449641 166.25 185.5625 C159.48659787 197.72329693 151.40599899 203.27287178 138.24609375 207.203125 C130.60657953 209.07852921 123.29312597 209.13754766 115.45532227 209.11352539 C114.18571876 209.11364593 112.91611525 209.11376646 111.6080389 209.11389065 C108.18985754 209.11411537 104.77171156 209.10834134 101.35353851 209.10128021 C98.13994954 209.09556339 94.926362 209.0953159 91.71276855 209.09460449 C82.32934106 209.08936797 72.94592008 209.07540673 63.5625 209.0625 C42.586875 209.041875 21.61125 209.02125 0 209 C0 140.03 0 71.06 0 0 Z M60 32 C60 49.82 60 67.64 60 86 C65.465625 86.04125 70.93125 86.0825 76.5625 86.125 C78.27381104 86.14320801 79.98512207 86.16141602 81.74829102 86.18017578 C83.12515958 86.18602437 84.50203165 86.19111906 85.87890625 86.1953125 C86.92637024 86.2106604 86.92637024 86.2106604 87.99499512 86.22631836 C93.98146327 86.22841703 99.02112005 85.53912885 103.8125 81.8125 C109.05769893 75.06867281 108.30499423 67.17580825 108.25 59 C108.25773437 57.85015625 108.26546875 56.7003125 108.2734375 55.515625 C108.32760652 45.18987604 108.32760652 45.18987604 103.8125 36.1875 C98.42380904 31.99629592 92.49716046 31.70771395 85.87890625 31.8046875 C84.88691223 31.80770874 84.88691223 31.80770874 83.87487793 31.81079102 C81.43734664 31.82114503 78.99991532 31.84906639 76.5625 31.875 C68.3640625 31.936875 68.3640625 31.936875 60 32 Z M60 118 C60 137.47 60 156.94 60 177 C65.94 177.061875 71.88 177.12375 78 177.1875 C79.85882813 177.21481201 81.71765625 177.24212402 83.6328125 177.27026367 C85.13020176 177.27903744 86.62759825 177.28667926 88.125 177.29296875 C88.88296875 177.30831665 89.6409375 177.32366455 90.421875 177.33947754 C97.09284576 177.34270127 102.45937017 175.93308791 107.875 171.8125 C113.13966555 164.8445603 112.33528322 155.90571682 112.3125 147.5625 C112.32861328 146.38623047 112.34472656 145.20996094 112.36132812 143.99804688 C112.36590994 135.80117113 111.84784062 128.71801414 106.75 122.0625 C101.11589643 117.83692232 94.97990226 117.71408197 88.22265625 117.8046875 C87.14220032 117.80770874 87.14220032 117.80770874 86.03991699 117.81079102 C83.38071207 117.82115829 80.7215988 117.84907995 78.0625 117.875 C72.101875 117.91625 66.14125 117.9575 60 118 Z " fill="#275417" transform="translate(21,90)"/>
<path d="M0 0 C1.99781145 0.00373871 3.99562476 0.00658162 5.99343872 0.00857544 C11.20474475 0.01614443 16.41593601 0.03573361 21.62719727 0.0579834 C26.96368864 0.0785884 32.3001989 0.08760823 37.63671875 0.09765625 C48.07297473 0.11898707 58.50911603 0.15411282 68.9453125 0.1953125 C68.9453125 10.7553125 68.9453125 21.3153125 68.9453125 32.1953125 C63.87800781 32.24429688 58.81070313 32.29328125 53.58984375 32.34375 C50.37693332 32.37914136 47.16404963 32.4151042 43.95117188 32.453125 C38.85314794 32.51339997 33.75516137 32.57157415 28.65698242 32.6171875 C24.5460684 32.65410031 20.43535949 32.70047645 16.3246212 32.75337601 C14.75740855 32.77188812 13.19015199 32.78700782 11.62287331 32.79865646 C9.4252084 32.81557364 7.22800996 32.84462106 5.03051758 32.87646484 C3.78031326 32.88978851 2.53010895 32.90311218 1.24201965 32.9168396 C-1.96868185 33.1880476 -4.19487124 33.74409778 -7.0546875 35.1953125 C-8.8881074 37.55256666 -9.08964227 39.41814916 -9.5546875 42.3828125 C-8.04960692 53.85905189 3.62933952 62.28162137 11.9140625 69.3828125 C14.9047085 72.05138893 17.68650548 74.91315758 20.4765625 77.7890625 C22.48684795 79.74845465 24.52595508 81.58023562 26.65112305 83.40991211 C30.61226663 86.86552817 34.39179638 90.46498608 38.12109375 94.16796875 C38.77176315 94.81293808 39.42243256 95.45790741 40.09281921 96.12242126 C41.4596593 97.47988745 42.82510762 98.83875635 44.18920898 100.19897461 C46.23556724 102.23567226 48.29237832 104.26140299 50.34960938 106.28710938 C66.00065935 121.81371416 81.8971143 138.02320262 82.1953125 161.2578125 C82.08741872 173.4737865 79.72727147 184.47573857 71.6328125 193.8828125 C70.3025 195.0275 70.3025 195.0275 68.9453125 196.1953125 C68.41679687 196.67613281 67.88828125 197.15695312 67.34375 197.65234375 C51.51010124 210.95934643 28.85958959 209.48612876 9.484375 209.390625 C7.23994066 209.38688755 4.99550468 209.38404404 2.75106812 209.38204956 C-3.11125315 209.37447074 -8.97347283 209.35487263 -14.83575439 209.3326416 C-20.83580146 209.31205825 -26.83586519 209.30302132 -32.8359375 209.29296875 C-44.57557229 209.2716205 -56.31510549 209.23648623 -68.0546875 209.1953125 C-68.0546875 198.6353125 -68.0546875 188.0753125 -68.0546875 177.1953125 C-65.63237793 177.18072998 -63.21006836 177.16614746 -60.71435547 177.15112305 C-52.70354059 177.10074536 -44.69291944 177.0341446 -36.68229485 176.95959759 C-31.82629944 176.91490453 -26.97038773 176.875646 -22.11425781 176.84887695 C-17.42622907 176.82283343 -12.73852257 176.78242348 -8.05069351 176.73212624 C-6.2638157 176.71546464 -4.47688216 176.70394595 -2.68993759 176.69769859 C-0.1834118 176.68804977 2.32229091 176.65998175 4.82861328 176.62768555 C5.56445145 176.62912064 6.30028961 176.63055573 7.0584259 176.6320343 C11.73790792 176.54697703 14.9880094 175.705529 18.9453125 173.1953125 C21.50835753 169.35074496 21.53601773 167.773278 20.9453125 163.1953125 C16.40594972 153.73686838 7.8631267 146.77499028 0.04296875 140.07421875 C-3.23917013 137.13435134 -6.29423344 133.97631937 -9.3671875 130.8203125 C-11.36092299 128.87294295 -13.34802636 127.07433314 -15.46484375 125.2734375 C-21.43333096 120.09561741 -26.96997732 114.46603288 -32.55395508 108.88134766 C-34.47913452 106.95835068 -36.41217781 105.04350676 -38.34570312 103.12890625 C-53.90427379 87.64212686 -70.03279278 70.81183698 -70.3046875 47.6328125 C-70.31038476 35.19000732 -67.41972898 23.24188303 -58.8671875 13.85546875 C-42.99022006 -0.6870122 -20.11751135 -0.11175383 0 0 Z " fill="#275417" transform="translate(283.0546875,89.8046875)"/>
<path d="M0 0 C1.77932699 0.00186822 3.55865449 0.00329022 5.33798218 0.00428772 C9.99035089 0.00808106 14.64268771 0.01788369 19.29504395 0.0289917 C24.05476449 0.03927473 28.81449026 0.04380002 33.57421875 0.04882812 C42.89064117 0.05950922 52.20703168 0.07707975 61.5234375 0.09765625 C61.5234375 10.65765625 61.5234375 21.21765625 61.5234375 32.09765625 C57.08003906 32.13503906 52.63664063 32.17242187 48.05859375 32.2109375 C44.4954369 32.24909599 40.93233988 32.29016836 37.36923981 32.33319855 C33.61914647 32.37769338 29.86916058 32.41716176 26.11889648 32.4440918 C22.50064325 32.47027392 18.8827979 32.51077869 15.26479912 32.56084251 C13.89070177 32.57741126 12.51653403 32.58898733 11.14235115 32.59527016 C-1.19087775 32.36445567 -1.19087775 32.36445567 -12.05186462 37.44282532 C-18.66934403 44.87465653 -18.62642233 53.68533379 -18.62182617 63.09106445 C-18.62518478 64.08210175 -18.6285434 65.07313904 -18.63200378 66.09420776 C-18.64148315 69.36229718 -18.64345541 72.6303352 -18.64453125 75.8984375 C-18.647746 78.17758709 -18.65111024 80.45673647 -18.65461731 82.73588562 C-18.66060109 87.51134723 -18.66245799 92.28679076 -18.66186523 97.06225586 C-18.66176367 103.16846848 -18.67541303 109.27456466 -18.69263744 115.3807497 C-18.70377967 120.08805367 -18.70578375 124.79532969 -18.70525551 129.50264549 C-18.70643238 131.75320016 -18.71083765 134.00375563 -18.71858788 136.25429726 C-18.72843222 139.40830159 -18.72549209 142.56205573 -18.71948242 145.71606445 C-18.72510193 146.63740677 -18.73072144 147.55874908 -18.73651123 148.50801086 C-18.69641704 156.82757879 -17.98816649 164.51435149 -12.4765625 171.09765625 C-6.78552408 175.57783543 -2.20906895 176.20361307 4.87426758 176.30297852 C6.1351973 176.32292374 7.39612701 176.34286896 8.69526672 176.36341858 C10.06116617 176.38039893 11.42706688 176.39727788 12.79296875 176.4140625 C14.19830409 176.43465099 15.6036335 176.45564795 17.00895691 176.47703552 C20.69631123 176.5320606 24.38371962 176.58155558 28.07116699 176.62988281 C31.83850878 176.68024129 35.60577364 176.73580172 39.37304688 176.79101562 C46.75645096 176.8988471 54.13990003 176.99802195 61.5234375 177.09765625 C61.5234375 187.65765625 61.5234375 198.21765625 61.5234375 209.09765625 C51.29050004 209.16594354 41.05771857 209.22076347 30.82460308 209.25309277 C26.07088821 209.26862385 21.31733981 209.28962676 16.5637207 209.32397461 C11.96008018 209.35702344 7.35659784 209.37460312 2.75284767 209.38228798 C1.01293262 209.38775113 -0.72697564 209.39841362 -2.46682167 209.41484642 C-21.18320722 209.58428648 -44.53673099 209.02485294 -59.453125 196.16015625 C-81.54871555 173.6380099 -79.85405065 137.19294177 -79.73730469 107.79541016 C-79.72656295 104.59778914 -79.7373014 101.40072956 -79.75 98.203125 C-79.7577477 87.30419339 -79.42674499 76.48472374 -78.57421875 65.6171875 C-78.45563507 64.0997998 -78.45563507 64.0997998 -78.33465576 62.55175781 C-76.68883238 43.48647608 -72.49550175 24.3585454 -57.4140625 11.34765625 C-41.21022103 -0.57018619 -19.13255795 -0.05933065 0 0 Z " fill="#275417" transform="translate(463.4765625,89.90234375)"/>
</svg>
