<?xml version="1.0" encoding="UTF-8"?>
<svg version="1.1" xmlns="http://www.w3.org/2000/svg" width="1764" height="1764">
<path d="M0 0 C582.12 0 1164.24 0 1764 0 C1764 582.12 1764 1164.24 1764 1764 C1181.88 1764 599.76 1764 0 1764 C0 1181.88 0 599.76 0 0 Z " fill="#FEFEFE" transform="translate(0,0)"/>
<path d="M0 0 C1.24547607 0.20647156 1.24547607 0.20647156 2.51611328 0.41711426 C11.9631751 1.99844753 21.39000587 3.68600159 30.79296875 5.51171875 C31.49615234 5.64699982 32.19933594 5.78228088 32.92382812 5.92166138 C37.7574947 6.87874735 37.7574947 6.87874735 40 8 C41.72607444 8.27052615 43.45605017 8.51633606 45.1875 8.75 C56.26999719 10.52587003 67.70468535 14.26944317 77.375 20 C85.79784184 24.95126514 94.77762042 26.1905735 104.375 26.25 C105.6125 26.2809375 105.6125 26.2809375 106.875 26.3125 C112.34092227 26.34720427 115.99057015 25.3707418 121 23 C137.2311771 18.77711345 151.59393833 18.94007677 166.5 27.375 C177.70613086 34.47621127 186.87217915 44.05683293 191 57 C193.82081743 70.60853816 192.78595265 84.82836998 185.25 96.75 C184.19558341 98.18831889 183.11125599 99.60512879 182 101 C181.41347656 101.74894531 180.82695313 102.49789062 180.22265625 103.26953125 C174.04780905 110.68187339 165.88475274 118.61266628 156 120 C145.05110612 120.50689324 145.05110612 120.50689324 140 119 C140.38671875 120.00417969 140.7734375 121.00835937 141.171875 122.04296875 C144.03126041 129.5283721 146.74521872 137.00369576 149.01098633 144.69506836 C149.61319745 146.70744357 150.23196976 148.7150846 150.88012695 150.71313477 C154.22418213 161.07695679 156.64746693 171.63843328 159.0625 182.25 C159.39590897 183.7055127 159.39590897 183.7055127 159.73605347 185.19042969 C162.96902827 199.3820778 165.66332716 213.41001822 166.76977539 227.94921875 C166.95034493 229.9921405 166.95034493 229.9921405 167.49169922 231.90039062 C171.42525079 248.14849029 170.20421549 267.33180961 170.25 284 C170.25508575 284.74241943 170.26017151 285.48483887 170.26541138 286.24975586 C170.40933314 312.26965569 164.70625849 335.94428381 153.95214844 359.57836914 C152.96682264 362.08438109 152.29915005 364.32194819 152 367 C153.28762153 368.70222982 154.6306054 370.36283355 156 372 C157.34066835 374.78136509 158.38114171 377.66302935 159.4375 380.5625 C159.99694856 382.06445484 160.55818473 383.5657449 161.12109375 385.06640625 C161.41669189 385.8545874 161.71229004 386.64276855 162.0168457 387.45483398 C163.49366608 391.27799079 165.08589787 395.0507364 166.67260742 398.8293457 C168.96620242 404.3079034 171.1986901 409.81137931 173.4375 415.3125 C174.15873047 417.08318848 174.15873047 417.08318848 174.89453125 418.88964844 C177.88674298 426.2428066 180.85751559 433.60372838 183.78125 440.984375 C184.62925756 443.08265013 185.52650799 445.16141468 186.4609375 447.22265625 C188.47761321 451.90025938 189.76592299 456.78731028 191.125 461.6875 C191.52138672 463.09225586 191.52138672 463.09225586 191.92578125 464.52539062 C192.62585215 467.01472902 193.3222603 469.5044905 194 472 C194.28157959 472.9751355 194.28157959 472.9751355 194.56884766 473.9699707 C197.07856243 485.78666285 195.94227151 500.69284853 192 512 C191.4745667 513.76947391 190.95362678 515.54028918 190.4375 517.3125 C190.09525391 518.42044922 190.09525391 518.42044922 189.74609375 519.55078125 C188.79007162 522.68913663 187.89568312 525.84396634 187 529 C187.93199219 529.27972656 188.86398437 529.55945313 189.82421875 529.84765625 C216.21797093 538.03317073 238.05196356 555.61625167 251.1875 579.98828125 C261.95475395 600.60658306 266.22753204 622.18245289 266.25 645.375 C266.25100708 646.09342072 266.25201416 646.81184143 266.25305176 647.55203247 C266.24279329 658.36068174 265.58109657 668.46603752 263 679 C262.69170917 680.41979528 262.38714742 681.84040441 262.0859375 683.26171875 C259.76336329 693.96757732 256.94216537 704.73098317 252.28515625 714.6796875 C250.94164135 718.15077464 250.77942299 718.70828332 252 722 C253.26927739 724.06656641 253.26927739 724.06656641 254.87890625 726.125 C255.46647705 726.90786377 256.05404785 727.69072754 256.65942383 728.49731445 C257.28743896 729.32320068 257.9154541 730.14908691 258.5625 731 C263.95210153 738.19995312 269.13071428 745.43576369 274 753 C274.7562304 754.16294255 275.51275545 755.32569354 276.26953125 756.48828125 C297.42421892 789.11787656 315.41574623 824.31434306 326.33496094 861.75048828 C327.01165572 864.03942579 327.72389342 866.31463591 328.4453125 868.58984375 C331.59293725 878.61431062 334.26081393 888.72995286 336.75 898.9375 C337.04382568 900.13358887 337.33765137 901.32967773 337.64038086 902.56201172 C339.23742365 909.23753049 340.54223324 915.87388121 341.48144531 922.67407227 C341.89338948 925.31621697 342.39679468 927.88144606 342.95727539 930.49291992 C347.68214013 953.86863115 347.46398429 978.20616461 347.3225708 1001.94714355 C347.30894865 1005.0620748 347.31435554 1008.17686532 347.31969929 1011.2918129 C347.32305885 1014.34616438 347.31637849 1017.40043018 347.30657005 1020.45476532 C347.30278225 1021.88504335 347.30154239 1023.31533096 347.3031559 1024.7456131 C347.30461446 1032.44173826 346.95064415 1039.78951418 345.49635315 1047.35650635 C344.61776793 1052.0357039 344.16777309 1056.77231628 343.625 1061.5 C342.399782 1071.68398033 340.68379702 1081.66652059 338.49853516 1091.68554688 C338.02242393 1093.89589673 337.5757552 1096.11015538 337.13671875 1098.328125 C333.48004642 1116.33841677 327.44938295 1133.76440681 321.6875 1151.1875 C321.36233398 1152.17250488 321.03716797 1153.15750977 320.70214844 1154.17236328 C319.00805886 1159.23088311 317.16630622 1164.12581101 315 1169 C314.3475803 1170.62236686 313.70104469 1172.24712213 313.0625 1173.875 C311.15955765 1178.64304656 309.13441389 1183.33139312 307 1188 C306.48050781 1189.16660156 305.96101563 1190.33320312 305.42578125 1191.53515625 C296.81900823 1210.57813869 286.07635255 1228.42294121 274.47851562 1245.77636719 C273.11859267 1247.82164102 271.78132062 1249.87934737 270.453125 1251.9453125 C260.55786786 1267.24673933 249.03553954 1281.34293219 237 1295 C236.22140625 1295.89074219 235.4428125 1296.78148437 234.640625 1297.69921875 C229.81576509 1303.14857294 224.73480473 1308.29465192 219.55859375 1313.40625 C217.41191104 1315.58242911 215.40632527 1317.79020486 213.4375 1320.125 C209.36041538 1324.87360444 204.71403044 1328.89728099 200 1333 C198.83825637 1334.02441613 197.67681485 1335.04917494 196.515625 1336.07421875 C166.81980398 1362.1776459 133.7152322 1384.93665068 98 1402 C97.35256836 1402.31066406 96.70513672 1402.62132812 96.03808594 1402.94140625 C87.79587106 1406.88315584 79.47385687 1410.58053695 71 1414 C69.78183594 1414.495 68.56367187 1414.99 67.30859375 1415.5 C55.87633176 1420.12741317 44.44680675 1424.26213004 32.5859375 1427.65625 C29.61011549 1428.51332707 26.66447803 1429.42739302 23.7265625 1430.40625 C8.11867898 1435.51297687 -7.97594037 1438.33069021 -24.10058594 1441.28173828 C-26.39788644 1441.70489494 -28.69363466 1442.13693442 -30.98535156 1442.58935547 C-81.53491569 1452.44191823 -137.53245916 1449.87332251 -187.51074219 1438.54199219 C-191.05362516 1437.77059162 -194.61307707 1437.17136964 -198.1875 1436.5625 C-206.27604877 1435.08268235 -214.08523896 1432.79833477 -221.96484375 1430.46875 C-226.16408863 1429.22826079 -230.37766675 1428.12547876 -234.625 1427.0625 C-247.51749491 1423.66228156 -259.97371964 1418.72476578 -272 1413 C-275.16151555 1411.62042958 -278.32817905 1410.26852103 -281.53125 1408.98828125 C-304.14843656 1399.83804851 -325.81929673 1387.6559679 -346 1374 C-346.68288086 1373.54238281 -347.36576172 1373.08476563 -348.06933594 1372.61328125 C-361.27542233 1363.75546473 -373.7915991 1354.1930987 -386 1344 C-386.52674316 1343.56494141 -387.05348633 1343.12988281 -387.59619141 1342.68164062 C-395.39376286 1336.22879188 -402.70153239 1329.44964436 -409.79785156 1322.23168945 C-412.93617979 1319.0432639 -416.08029452 1315.95406564 -419.5 1313.0625 C-422.67756083 1310.36803729 -425.35526941 1307.44475469 -428.04296875 1304.265625 C-430.32699715 1301.62144043 -432.72652547 1299.10328634 -435.125 1296.5625 C-441.43292996 1289.78048762 -446.9352261 1282.41886769 -452.48046875 1275.01171875 C-453.84184854 1273.2093779 -455.22405863 1271.42790201 -456.625 1269.65625 C-466.75183884 1256.80295455 -475.60333796 1243.03277766 -484 1229 C-484.39429199 1228.34676758 -484.78858398 1227.69353516 -485.19482422 1227.02050781 C-490.91367395 1217.53526454 -496.17700255 1207.97099473 -501 1198 C-501.6853767 1196.66557398 -502.37253314 1195.33205847 -503.0625 1194 C-507.21862093 1185.68775815 -510.66429406 1176.99327871 -514.0703125 1168.3515625 C-514.70005809 1166.75867659 -515.34105071 1165.17019944 -515.9921875 1163.5859375 C-519.07713762 1156.05291976 -521.75586052 1148.39695879 -523.97265625 1140.5625 C-524.98264489 1137.06018197 -526.12521322 1133.63333883 -527.3125 1130.1875 C-533.28770668 1112.50133582 -537.2843514 1094.46254446 -540.61102295 1076.11212158 C-540.88256621 1074.6376583 -541.16435355 1073.16506097 -541.45391846 1071.69403076 C-545.86667357 1048.7309656 -546.48141513 1025.37543222 -546.3225708 1002.06591797 C-546.3090635 999.37886506 -546.31442864 996.69197557 -546.31943893 994.00490379 C-546.36192736 963.72209424 -543.29604208 934.58846937 -537 905 C-536.82291504 904.16533203 -536.64583008 903.33066406 -536.46337891 902.47070312 C-535.94021515 900.02071916 -535.40977 897.57247497 -534.875 895.125 C-534.63728882 894.02841064 -534.63728882 894.02841064 -534.39477539 892.90966797 C-533.48866176 888.83905357 -532.35515087 884.94084103 -531 881 C-530.46360474 879.16580947 -529.92779808 877.33142555 -529.40209961 875.49414062 C-527.23762364 867.94401822 -524.90050533 860.45796689 -522.4375 853 C-522.15688721 852.14075928 -521.87627441 851.28151855 -521.5871582 850.39624023 C-519.96788058 845.54216765 -518.12398873 840.88662968 -515.99780273 836.23339844 C-514.64906519 833.21449677 -513.45901322 830.14231929 -512.26074219 827.0612793 C-509.17916956 819.14392263 -505.89134712 811.36442712 -502.25 803.6875 C-501.88559814 802.91809082 -501.52119629 802.14868164 -501.14575195 801.35595703 C-498.94504805 796.78143187 -496.55388524 792.38667348 -494 788 C-493.32770626 786.79464983 -492.65850452 785.5875706 -491.9921875 784.37890625 C-479.49942323 761.80876344 -465.60683268 737.18093586 -447.21484375 718.9140625 C-445.48205297 716.18394198 -445.81143247 714.2008068 -446 711 C-446.74717404 708.20985481 -446.74717404 708.20985481 -447.828125 705.43359375 C-455.56637568 683.26630332 -458.87351462 655.93961767 -453 633 C-452.69063394 631.10697435 -452.39665375 629.21130428 -452.125 627.3125 C-449.14016892 609.49328286 -442.23695986 592.25931458 -431 578 C-430.05060547 576.71609375 -430.05060547 576.71609375 -429.08203125 575.40625 C-425.57451397 570.71991764 -425.57451397 570.71991764 -424 569 C-423.34 569 -422.68 569 -422 569 C-422 568.34 -422 567.68 -422 567 C-420.390625 565.37890625 -420.390625 565.37890625 -418.25 563.5625 C-417.55390625 562.96566406 -416.8578125 562.36882813 -416.140625 561.75390625 C-410.33853007 557 -410.33853007 557 -408 557 C-408.25394531 556.06285156 -408.50789062 555.12570312 -408.76953125 554.16015625 C-414.93840545 530.36206386 -419.9508811 500.85342374 -408.05493164 478.02856445 C-407.05668594 476.10900336 -406.12539949 474.17151752 -405.2109375 472.2109375 C-392.48742494 445.40018444 -369.64460193 419.42973462 -345 403 C-346.63143722 397.9155208 -349.69675135 394.00731073 -352.8125 389.75 C-356.99679247 384.02957049 -360.68974738 378.26923616 -364 372 C-364.34909424 371.35095703 -364.69818848 370.70191406 -365.05786133 370.03320312 C-370.0775402 360.6159684 -374.01167623 351.25322398 -377 341 C-377.23936279 340.19731689 -377.47872559 339.39463379 -377.7253418 338.56762695 C-390.73787204 293.33749899 -386.64047583 238.82521751 -378.46777344 193.0168457 C-377.99150327 189.91219541 -378.00518675 187.99328252 -379 185 C-382.33862186 181.55315701 -386.09490116 179.02421444 -390.06542969 176.359375 C-393.46717948 173.96904905 -396.59890963 171.26981523 -399.75 168.5625 C-400.3579541 168.05404541 -400.9659082 167.54559082 -401.59228516 167.02172852 C-405.87952484 163.36142549 -405.87952484 163.36142549 -407 160 C-407.99 159.67 -408.98 159.34 -410 159 C-411.85108391 156.93374232 -413.56112936 154.87991711 -415.25 152.6875 C-415.73726562 152.05956543 -416.22453125 151.43163086 -416.7265625 150.78466797 C-427.96843276 136.03714835 -433.12690408 122.69826035 -432 104 C-430.78589649 96.59191076 -427.49322695 90.921392 -423 85 C-422.39285156 84.16339844 -421.78570313 83.32679688 -421.16015625 82.46484375 C-415.13609336 75.59109387 -405.76505127 71.92370522 -397 70 C-395.70255859 69.69449219 -395.70255859 69.69449219 -394.37890625 69.3828125 C-382.08697241 66.89373852 -369.264193 67.43201278 -356.875 68.9375 C-355.81418213 69.06535889 -355.81418213 69.06535889 -354.73193359 69.19580078 C-351.85992412 69.56207613 -349.04567132 69.98952964 -346.22265625 70.63671875 C-343.6846744 71.27455541 -343.6846744 71.27455541 -340 71 C-337.79729886 69.38342534 -336.14279671 67.55749073 -334.3359375 65.5078125 C-321.82073795 52.07176215 -302.8375869 39.96727734 -286 33 C-284.20616927 32.06664745 -282.41478135 31.12859427 -280.625 30.1875 C-273.0093266 26.35117574 -265.08182719 23.66351991 -257 21 C-255.76894531 20.59007812 -254.53789063 20.18015625 -253.26953125 19.7578125 C-234.56036502 13.72514141 -215.59646711 8.79802256 -196.23388672 5.40869141 C-193.09582309 4.83458009 -189.98951001 4.12686374 -186.875 3.4375 C-128.41741039 -8.05522484 -58.88962135 -9.77348329 0 0 Z " fill="#060503" transform="translate(986,170)"/>
<path d="M0 0 C3.23174785 3.0228233 5.06028263 6.57336162 7.125 10.4375 C11.18406389 17.83162809 15.71077052 24.41149987 21 31 C22.07894531 32.36705078 22.07894531 32.36705078 23.1796875 33.76171875 C25.41163997 36.54570217 27.68951095 39.280879 30 42 C30.83144531 42.9796875 31.66289063 43.959375 32.51953125 44.96875 C53.2296462 68.7730822 86.19866204 88.4399309 118 91 C148.06448188 92.81551035 173.12104935 87.75962696 197 69 C198.35544922 67.62908203 198.35544922 67.62908203 199.73828125 66.23046875 C202 64 202 64 204 64 C204.27199219 63.41089844 204.54398438 62.82179688 204.82421875 62.21484375 C205.9755375 60.04608053 207.19983675 58.40493585 208.8125 56.5625 C209.29332031 56.00691406 209.77414062 55.45132813 210.26953125 54.87890625 C211.12611328 53.94884766 211.12611328 53.94884766 212 53 C212.66 52.21625 213.32 51.4325 214 50.625 C218.27310345 46.88603449 223.05601017 44.79857477 228.1875 42.4375 C229.17814453 41.96892578 230.16878906 41.50035156 231.18945312 41.01757812 C240.8385767 36.49356281 250.38056484 32.67161952 260.6875 29.9375 C262.13576172 29.55126465 262.13576172 29.55126465 263.61328125 29.15722656 C290.02628888 22.21060556 316.16859318 20.72552787 343.30249023 23.14746094 C355.3080849 24.18930971 367.33829364 24.69901423 379.37597656 25.21435547 C394.24434581 25.87597593 409.1378435 26.91893957 423.75 29.875 C424.62503174 30.04717041 425.50006348 30.21934082 426.40161133 30.39672852 C432.75430551 31.67657959 439.0094353 33.16560456 445.23828125 34.9609375 C448.03509913 35.73347494 450.77074438 36.38796958 453.60546875 36.9765625 C464.65962762 39.40816078 469.42151557 42.48133579 476 52 C492.06602312 69.1432469 517.3987627 79.95219756 540.72167969 81.13842773 C554.51606275 81.58463959 566.83009589 81.22430887 580 77 C581.75763672 76.54947266 581.75763672 76.54947266 583.55078125 76.08984375 C592.61725373 73.76019398 600.6814007 70.19618922 609 66 C609.95648437 65.52691406 610.91296875 65.05382812 611.8984375 64.56640625 C639.18958313 50.44063732 658.81444815 27.84399742 676 3 C679.69034158 6.51398897 682.7686906 10.19121511 685.6875 14.375 C686.11901367 14.98875488 686.55052734 15.60250977 686.99511719 16.23486328 C688.33684293 18.15196234 689.66896452 20.07546822 691 22 C691.39848145 22.56976562 691.79696289 23.13953125 692.20751953 23.7265625 C706.64692529 44.43167122 719.3083853 66.78390717 729.14990234 90.02783203 C729.96413333 91.9167918 730.81174402 93.78572105 731.67578125 95.65234375 C740.41082984 114.66570008 746.62539664 134.80926566 752 155 C752.19432617 155.72364746 752.38865234 156.44729492 752.58886719 157.19287109 C756.5687972 172.12976375 759.15971044 187.26336697 761.30761719 202.55639648 C761.62736662 204.82932304 761.95395156 207.10119635 762.28125 209.37304688 C762.49258977 210.85931786 762.70354109 212.34564413 762.9140625 213.83203125 C763.0992041 215.13889893 763.2843457 216.4457666 763.47509766 217.79223633 C764.71471513 227.36411383 765.15894274 236.81077973 765.16796875 246.4609375 C765.17129715 247.72733063 765.17462555 248.99372375 765.17805481 250.29849243 C765.1830939 252.96937598 765.18589975 255.64015764 765.18530273 258.31103516 C765.18522197 261.0025105 765.19209212 263.69381385 765.20581055 266.38525391 C765.28138083 282.37671181 764.99273141 298.1214138 763 314 C762.7666394 315.87872803 762.7666394 315.87872803 762.52856445 317.79541016 C758.69089555 347.08056173 753.2723475 378.2501224 741.47265625 405.53125 C740.09859824 408.767758 739.04134509 411.93905533 738.0625 415.3125 C735.34791245 424.27267995 731.83163804 432.48828147 727.5715332 440.81469727 C725.81230689 444.27872131 724.24981601 447.74235608 722.875 451.375 C721.4092966 455.1945237 719.6019029 458.45103973 717.359375 461.86328125 C714.09048029 467.0014577 711.24747343 472.4433649 708.578125 477.9140625 C706.84071362 481.31147584 704.89583406 484.51368272 702.875 487.75 C700.30642839 491.79998047 700.30642839 491.79998047 698 496 C697.34 496 696.68 496 696 496 C695.7525 496.70125 695.505 497.4025 695.25 498.125 C693.83136774 501.38785421 691.99537122 504.05343031 690 507 C688.97519531 508.58941406 688.97519531 508.58941406 687.9296875 510.2109375 C687.25164063 511.25507812 686.57359375 512.29921875 685.875 513.375 C685.19179687 514.43460938 684.50859375 515.49421875 683.8046875 516.5859375 C683.20914063 517.38257813 682.61359375 518.17921875 682 519 C681.34 519 680.68 519 680 519 C679.75378906 519.71929688 679.50757813 520.43859375 679.25390625 521.1796875 C677.85523354 524.32561179 676.15960297 526.49923458 673.9375 529.125 C673.12796875 530.08921875 672.3184375 531.0534375 671.484375 532.046875 C670.66453125 533.02140625 669.8446875 533.9959375 669 535 C667.56125557 536.79066752 666.1237389 538.58232225 664.6875 540.375 C655.98610889 550.96218747 646.41620386 560.67785785 636.75 570.375 C636.27841461 570.84926422 635.80682922 571.32352844 635.32095337 571.81216431 C626.33637155 580.83542142 616.88609684 588.98764712 607 597 C606.24332031 597.62519531 605.48664062 598.25039062 604.70703125 598.89453125 C592.15373118 609.15755627 578.80345723 618.50344963 565 627 C564.24460937 627.46792969 563.48921875 627.93585937 562.7109375 628.41796875 C552.90074823 634.47537133 543.04462586 640.18598114 532.66015625 645.19921875 C529.19610987 646.87642248 525.85378987 648.73617846 522.5 650.625 C517.01946224 653.62120931 511.44990984 655.8343987 505.58984375 657.94189453 C502.28595087 659.1320323 499.09620555 660.33912153 496 662 C485.48622443 667.53235789 473.87269165 670.72647394 462.453125 673.77734375 C458.17347731 674.92905606 453.96564767 676.26057189 449.75 677.625 C443.28426442 679.6822795 436.82628667 681.28653437 430.16308594 682.56689453 C427.70666976 683.05873226 425.26518744 683.60605463 422.8203125 684.15234375 C380.38571225 693.331309 334.07587197 695.70103959 291 690 C289.87601807 689.8563501 288.75203613 689.7127002 287.59399414 689.56469727 C266.84273594 686.86758413 246.16074029 683.69047002 226 678 C224.99614258 677.71833984 223.99228516 677.43667969 222.95800781 677.14648438 C202.6756293 671.42157004 202.6756293 671.42157004 194 668 C192.64648438 667.47575439 192.64648438 667.47575439 191.265625 666.94091797 C179.73984393 662.46053117 168.30386434 657.99739524 157.37890625 652.1796875 C155.14392637 650.85191033 155.14392637 650.85191033 153 651 C157.95 654.3 162.9 657.6 168 661 C163.89729471 662.36756843 161.54136077 660.78009511 157.8125 659.0625 C156.74890259 658.58369385 156.74890259 658.58369385 155.66381836 658.09521484 C148.69190279 654.92455241 141.82985011 651.54265798 135.02099609 648.03710938 C133.01569755 647.00805547 131.00238019 645.99607201 128.98828125 644.984375 C105.41158936 632.98595089 83.5536284 617.58925982 63 601 C62.02289062 600.21753906 61.04578125 599.43507813 60.0390625 598.62890625 C53.83702629 593.6168966 47.8807612 588.383295 42 583 C40.59621094 581.73542969 40.59621094 581.73542969 39.1640625 580.4453125 C28.90391446 571.17791779 18.89940696 561.59732013 10 551 C9.2059375 550.08347656 8.411875 549.16695312 7.59375 548.22265625 C-9.64510235 528.25555714 -24.83010183 506.84344294 -38 484 C-38.45681152 483.20883789 -38.91362305 482.41767578 -39.38427734 481.60253906 C-44.53618365 472.62921513 -49.29829771 463.58193461 -53.52734375 454.13671875 C-54.89784517 451.06026025 -54.89784517 451.06026025 -56.50390625 448.57421875 C-58.44828109 445.22867562 -59.69591344 441.75878286 -61 438.125 C-62.4252692 434.19808643 -63.86226569 430.31622673 -65.53125 426.484375 C-67.10653694 422.7472581 -68.33177091 419.00307253 -69.5 415.125 C-69.93555186 413.70422887 -70.37174455 412.28365402 -70.80859375 410.86328125 C-71.01468262 410.19119629 -71.22077148 409.51911133 -71.43310547 408.82666016 C-72.11051116 406.6439085 -72.8277564 404.47658088 -73.5625 402.3125 C-78.35202462 388.07922343 -81.953438 373.8389209 -84.61010742 359.07519531 C-85.02865317 356.8474941 -85.49562396 354.63244421 -85.9609375 352.4140625 C-87.54607275 344.5507695 -88.50636248 336.5852332 -89.58789062 328.640625 C-89.75611328 327.42890625 -89.92433594 326.2171875 -90.09765625 324.96875 C-90.24726807 323.86982422 -90.39687988 322.77089844 -90.55102539 321.63867188 C-90.86301163 319.03160584 -90.86301163 319.03160584 -92 317 C-96.35253223 290.88123018 -95.13867963 262.17883387 -92 236 C-91.90928223 235.22140625 -91.81856445 234.4428125 -91.72509766 233.640625 C-90.35574674 222.06724023 -90.35574674 222.06724023 -89 218 C-88.84371293 216.08442735 -88.69081876 214.16850296 -88.55712891 212.2512207 C-87.47125502 197.71128202 -84.09193878 183.65952232 -80.8046875 169.49609375 C-80.16816577 166.73062312 -79.55482718 163.96391646 -78.96875 161.1875 C-74.16840296 139.14146172 -67.51308324 115.2492622 -57.0625 95.1875 C-55.38957572 91.95061586 -54.11827736 88.6744657 -52.875 85.25 C-45.31952078 65.28689895 -34.12688834 46.49736746 -22 29 C-21.55398438 28.3503125 -21.10796875 27.700625 -20.6484375 27.03125 C-14.18399462 17.62842399 -7.49737805 8.60871506 0 0 Z " fill="#B7FC6B" transform="translate(549,906)"/>
<path d="M0 0 C3.28846704 0.00008156 6.57679562 -0.00692594 9.86523438 -0.02050781 C44.21889252 -0.16012079 44.21889252 -0.16012079 60.7723999 1.93081665 C63.79830034 2.31018015 66.83175894 2.61452716 69.86474609 2.93139648 C80.37370016 4.13103322 90.55714086 5.52065653 100.80224609 8.18530273 C102.38307459 8.51023649 103.96645912 8.82300221 105.55224609 9.12280273 C138.14126083 15.56665978 138.14126083 15.56665978 148.83740234 22.98608398 C162.31923935 31.21456104 180.74674413 30.9818993 195.73974609 27.81030273 C198.82215581 27.05402377 201.74763914 26.20552483 204.72412109 25.10327148 C213.21339774 22.57157096 223.86638157 23.16768259 231.80224609 27.18530273 C242.32154835 32.9109989 250.5994739 40.37427905 254.41943359 52.07592773 C256.27020787 62.27407168 254.80325988 71.86471387 249.25927734 80.62280273 C244.29487315 87.34803679 237.85864681 94.39022494 229.80224609 97.18530273 C223.25042992 98.16501356 218.22423972 96.9365031 212.80224609 93.18530273 C204.229347 86.81015272 198.14941713 75.54306781 195.80224609 65.18530273 C194.48337838 66.28185562 193.17234552 67.38783696 191.86474609 68.49780273 C191.13384766 69.11268555 190.40294922 69.72756836 189.64990234 70.36108398 C187.56404243 72.14505792 187.56404243 72.14505792 186.80224609 75.18530273 C187.44465952 77.1741115 187.44465952 77.1741115 188.57568359 79.26342773 C188.98407471 80.08319092 189.39246582 80.9029541 189.81323242 81.74755859 C190.48841919 83.07799194 190.48841919 83.07799194 191.17724609 84.43530273 C196.36535277 94.97608654 200.74956559 105.717843 204.87402344 116.71313477 C205.64622927 118.76977766 206.43504399 120.82017511 207.22802734 122.86889648 C211.55429286 134.38211775 214.61375932 146.31849927 217.80224609 158.18530273 C218.00736816 158.94633301 218.21249023 159.70736328 218.42382812 160.49145508 C219.63676732 165.03640311 220.74582662 169.60192309 221.80224609 174.18530273 C222.08382568 175.38485596 222.08382568 175.38485596 222.37109375 176.60864258 C225.45379868 189.91412284 227.6700882 203.29155041 229.55224609 216.81030273 C229.65906708 217.57048706 229.76588806 218.33067139 229.87594604 219.1138916 C232.03022742 234.56923635 232.98901448 249.84901514 232.98754883 265.45239258 C232.98973718 268.04972701 233.00797789 270.64663649 233.02685547 273.24389648 C233.07985993 288.75230355 231.4419749 303.29397783 227.31689453 318.2800293 C226.82732929 320.09244257 226.38000516 321.91611015 225.93505859 323.73999023 C223.48840646 333.28842908 219.51960708 341.59387245 214.80224609 350.18530273 C214.46064453 350.81581543 214.11904297 351.44632813 213.76708984 352.09594727 C207.9281775 362.74974217 200.66774199 371.96049098 192.80224609 381.18530273 C192.27590576 381.81315674 191.74956543 382.44101074 191.20727539 383.08789062 C188.6209775 386.15464542 186.07236747 389.03716171 182.98974609 391.62280273 C180.91778825 393.37659477 178.86752363 395.12402178 176.88818359 396.98217773 C160.32428082 412.45887454 139.48022219 424.68727848 118.84130859 433.83764648 C116.42300015 434.91003262 114.12387782 436.05069403 111.80224609 437.31030273 C106.41415994 440.05740136 100.52587715 441.70854119 94.78198242 443.54711914 C89.41955879 445.27573862 84.08456993 447.08739235 78.75146484 448.90405273 C67.03084238 452.88287534 55.44459903 456.42361502 43.25146484 458.65795898 C40.66675413 459.1791098 40.66675413 459.1791098 37.66040039 460.13989258 C33.66706049 461.22193279 29.7140188 461.8940988 25.62255859 462.43920898 C24.85152802 462.54498764 24.08049744 462.6507663 23.28610229 462.75975037 C21.65771878 462.98157691 20.02897545 463.20077631 18.39990234 463.41748047 C15.96766895 463.74240264 13.53734171 464.0794541 11.10693359 464.41772461 C-5.71752 466.71493638 -22.35525398 467.36748908 -39.32275391 467.31030273 C-40.17492493 467.30841949 -41.02709595 467.30653625 -41.90509033 467.30459595 C-78.14538678 467.2110032 -113.51136515 464.41229813 -148.19775391 453.18530273 C-149.04499023 452.91427734 -149.89222656 452.64325195 -150.76513672 452.36401367 C-192.26286143 439.03769017 -231.36775848 416.46561486 -259.19775391 382.18530273 C-259.60622559 381.68337402 -260.01469727 381.18144531 -260.43554688 380.66430664 C-268.68198256 370.3814129 -274.95415136 359.136212 -281.01416016 347.4597168 C-281.93434325 345.69147718 -282.88769396 343.94048165 -283.85400391 342.19702148 C-285.82292214 337.78412627 -286.99603417 333.23266371 -288.19775391 328.56030273 C-288.45903076 327.55209473 -288.72030762 326.54388672 -288.98950195 325.50512695 C-291.22790079 316.58924564 -292.79996652 307.63806482 -293.91271973 298.51617432 C-294.08846677 297.07900007 -294.270714 295.64258249 -294.46362305 294.20761108 C-295.2671958 287.82977603 -295.35911356 281.51404345 -295.36572266 275.09155273 C-295.37071526 273.37325256 -295.37071526 273.37325256 -295.37580872 271.62023926 C-295.38085138 269.20312905 -295.38321787 266.78601194 -295.38305664 264.36889648 C-295.38523068 260.72424419 -295.403381 257.07990112 -295.42236328 253.43530273 C-295.44918547 242.06381328 -295.29244122 230.92958125 -293.6652832 219.66357422 C-293.17516194 216.01722557 -292.96670752 212.42283878 -292.82275391 208.74780273 C-292.10432841 195.49684362 -289.86618739 182.17768101 -287.19775391 169.18530273 C-287.92607422 168.93006836 -288.65439453 168.67483398 -289.40478516 168.41186523 C-292.35786867 167.1149866 -294.40823744 165.61561227 -296.88525391 163.56030273 C-298.19816406 162.47942383 -298.19816406 162.47942383 -299.53759766 161.37670898 C-300.41544922 160.65354492 -301.29330078 159.93038086 -302.19775391 159.18530273 C-303.78080555 157.9557733 -305.36413794 156.72660524 -306.94775391 155.49780273 C-321.024595 144.13909579 -340.20135153 128.39964243 -342.43457031 109.14331055 C-343.1104126 99.71499673 -342.5473922 91.81269507 -337.63525391 83.56030273 C-326.72407331 72.928896 -314.22308004 71.97811649 -299.76025391 71.99780273 C-299.08712158 71.99774231 -298.41398926 71.99768188 -297.72045898 71.99761963 C-275.50186164 72.02614583 -275.50186164 72.02614583 -266.07275391 75.25561523 C-263.06702449 76.39042447 -263.06702449 76.39042447 -259.19775391 76.18530273 C-257.60042416 74.81404249 -257.60042416 74.81404249 -256.19775391 72.87280273 C-236.17459354 48.8365617 -204.85102275 31.91631948 -175.19775391 23.18530273 C-173.38061202 22.60502207 -171.56350766 22.024621 -169.74707031 21.44213867 C-166.2396949 20.3267433 -162.71964276 19.25384246 -159.19775391 18.18530273 C-158.39128418 17.93989746 -157.58481445 17.69449219 -156.75390625 17.44165039 C-123.8142179 7.4984284 -89.51185414 2.8832159 -55.19775391 1.18530273 C-54.09793182 1.1233522 -54.09793182 1.1233522 -52.97589111 1.06015015 C-35.32123585 0.06769175 -17.6765849 -0.00232186 0 0 Z " fill="#E98919" transform="translate(910.19775390625,179.814697265625)"/>
<path d="M0 0 C0.13575439 0.55872803 0.27150879 1.11745605 0.41137695 1.69311523 C1.04119204 4.27554366 1.6768152 6.85651044 2.3125 9.4375 C2.52583984 10.31599609 2.73917969 11.19449219 2.95898438 12.09960938 C4.80665163 19.57300977 7.0053931 26.83778615 10 33.9375 C11.34996316 37.23854199 12.47587261 40.50389261 13.4375 43.9375 C14.77863607 48.59849751 16.64554815 52.88274433 18.71875 57.26171875 C19.66313238 59.28004817 20.56447954 61.31864868 21.44140625 63.3671875 C26.84433213 75.9604734 33.19299735 86.65527747 41.79833984 97.33105469 C43.09945007 99.13812285 44.05499846 100.98714124 45 103 C44.51273438 103.48984375 44.02546875 103.9796875 43.5234375 104.484375 C18.67150064 130.69187205 5.38498265 163.16186444 -2 198 C-2.4021875 199.76150391 -2.4021875 199.76150391 -2.8125 201.55859375 C-8.44372453 230.37951373 -1.27148098 260.12517015 9 287 C0.70427427 285.56545354 -7.47129552 283.79308063 -15.66210938 281.85546875 C-26.03833965 279.44445587 -36.37497526 277.77724673 -47 277 C-48.06089844 276.91951416 -49.12179687 276.83902832 -50.21484375 276.75610352 C-63.72489393 275.79229952 -77.26118449 275.25562153 -90.79296875 274.69726562 C-92.18588135 274.63847984 -92.18588135 274.63847984 -93.60693359 274.57850647 C-95.34543346 274.50547089 -97.08403622 274.43482404 -98.82275391 274.36717224 C-103.79941588 274.15745352 -108.72789614 273.76760727 -113.67967224 273.22567749 C-127.9649863 271.83627299 -142.24527316 273.11785591 -156.4375 274.8125 C-157.51041794 274.93665787 -157.51041794 274.93665787 -158.60501099 275.06332397 C-166.11383907 275.94691227 -173.00499006 277.03266911 -180 280 C-182.484375 280.484375 -182.484375 280.484375 -184.75 280.75 C-190.49525848 281.69542228 -195.83522693 283.51519735 -201.3125 285.4375 C-202.17262695 285.73817383 -203.03275391 286.03884766 -203.91894531 286.34863281 C-208.45393408 287.97218353 -212.69823528 289.81910533 -217 292 C-217.66 292 -218.32 292 -219 292 C-218.82984375 291.3915625 -218.6596875 290.783125 -218.484375 290.15625 C-216.90212231 284.43320837 -215.39043793 278.69452711 -213.9375 272.9375 C-213.61652344 271.66777344 -213.29554688 270.39804687 -212.96484375 269.08984375 C-212.80838379 268.42621826 -212.65192383 267.76259277 -212.49072266 267.07885742 C-212.16077297 265.68108547 -211.81109468 264.28783853 -211.44287109 262.8996582 C-209.60674006 255.23058198 -209.6972482 247.52432107 -209.73925781 239.6887207 C-209.7499004 237.3345313 -209.73935554 234.98111821 -209.7265625 232.62695312 C-209.68406023 188.53590737 -228.87109991 145.79952744 -259 114 C-259.76699219 113.3503125 -260.53398438 112.700625 -261.32421875 112.03125 C-263 110 -263 110 -262.86328125 107.546875 C-262.02777448 105.08194101 -261.17520598 102.65827115 -260.1875 100.25 C-259.87167969 99.47140625 -259.55585937 98.6928125 -259.23046875 97.890625 C-258.54086023 96.27059229 -257.84106101 94.65449742 -257.10522461 93.05493164 C-244.53457066 65.60497773 -238.21850615 34.03186869 -237 4 C-236.18144531 4.21914063 -235.36289062 4.43828125 -234.51953125 4.6640625 C-211.23815749 10.6990656 -187.98030776 15.0225045 -164 17 C-162.95956543 17.0942627 -161.91913086 17.18852539 -160.84716797 17.28564453 C-149.90841076 18.19355326 -138.97073122 18.24341499 -128 18.25 C-126.47682663 18.25101212 -126.47682663 18.25101212 -124.92288208 18.25204468 C-88.7807158 18.21407463 -53.56760561 12.93811946 -18.6640625 3.57421875 C-17.36299561 3.22617187 -17.36299561 3.22617187 -16.03564453 2.87109375 C-14.39660284 2.42921846 -12.75939315 1.98046499 -11.12451172 1.5234375 C-7.31860367 0.48462483 -3.98779053 -0.2769299 0 0 Z " fill="#CA6E01" transform="translate(995,642)"/>
<path d="M0 0 C6.88606215 1.09256936 12.78599153 2.84646825 19 6 C19.88816406 6.44472656 20.77632812 6.88945313 21.69140625 7.34765625 C38.61197987 16.17271203 51.62346447 29.51483083 61 46 C61.55171875 46.93972656 62.1034375 47.87945313 62.671875 48.84765625 C66.0081757 54.9613413 68.21439873 61.30299376 70.25 67.9375 C70.61967896 69.13463623 70.61967896 69.13463623 70.99682617 70.35595703 C74.47826802 82.2912976 75.41318032 94.17068009 75.375 106.5625 C75.37412384 107.26342773 75.37324768 107.96435547 75.37234497 108.68652344 C75.32371554 120.53797086 74.17402596 131.56173475 71 143 C70.72671875 144.01690918 70.4534375 145.03381836 70.171875 146.08154297 C64.6701694 166.40226153 64.6701694 166.40226153 61 172 C60.27224202 173.69541403 59.5455578 175.39135654 58.83544922 177.09423828 C49.69247443 197.95048059 34.02676993 219.89632209 16 234 C14.55367187 235.16595703 14.55367187 235.16595703 13.078125 236.35546875 C5.72311996 242.21171382 -1.87838826 247.248651 -10 252 C-10.80953125 252.52207031 -11.6190625 253.04414062 -12.453125 253.58203125 C-33.97921737 266.7407232 -65.66305934 271.02360928 -90.1875 265.875 C-92.14205758 265.30558282 -94.08048515 264.67822858 -96 264 C-97.21429687 263.58621094 -98.42859375 263.17242188 -99.6796875 262.74609375 C-122.58218132 254.50385569 -141.72618806 236.22104367 -152.25390625 214.41015625 C-167.89778742 180.7054659 -168.50786735 142.02537013 -156.27832031 107.00439453 C-154.1489497 101.1865074 -151.74651724 95.55458109 -149 90 C-148.41964897 88.76866422 -147.84029508 87.53685817 -147.26171875 86.3046875 C-141.21474408 73.61625832 -133.83312881 61.9572558 -124.796875 51.16796875 C-122.98403204 49.03883635 -122.98403204 49.03883635 -121.453125 46.80078125 C-120.07304529 44.91244638 -118.86648488 43.40821749 -117 42 C-113.83033965 41.88473962 -112.00204915 42.1941124 -109 43 C-82.51305899 49.4160913 -57.55538428 45.5262106 -34.125 31.5625 C-20.61781144 23.240707 -9.32456664 12.8889061 0 0 Z " fill="#D87704" transform="translate(1166,709)"/>
<path d="M0 0 C3.23174785 3.0228233 5.06028263 6.57336162 7.125 10.4375 C11.18406389 17.83162809 15.71077052 24.41149987 21 31 C22.07894531 32.36705078 22.07894531 32.36705078 23.1796875 33.76171875 C25.41163997 36.54570217 27.68951095 39.280879 30 42 C30.83144531 42.9796875 31.66289063 43.959375 32.51953125 44.96875 C53.2296462 68.7730822 86.19866204 88.4399309 118 91 C148.06448188 92.81551035 173.12104935 87.75962696 197 69 C198.35544922 67.62908203 198.35544922 67.62908203 199.73828125 66.23046875 C202 64 202 64 204 64 C204.27199219 63.41089844 204.54398438 62.82179688 204.82421875 62.21484375 C205.9755375 60.04608053 207.19983675 58.40493585 208.8125 56.5625 C209.29332031 56.00691406 209.77414062 55.45132813 210.26953125 54.87890625 C211.12611328 53.94884766 211.12611328 53.94884766 212 53 C212.66 52.21625 213.32 51.4325 214 50.625 C218.27310345 46.88603449 223.05601017 44.79857477 228.1875 42.4375 C229.17814453 41.96892578 230.16878906 41.50035156 231.18945312 41.01757812 C239.18524184 37.26873293 247.26500199 33.55667113 255.8125 31.25 C257.12154297 30.88648438 257.12154297 30.88648438 258.45703125 30.515625 C261.04195589 29.99149282 263.37015701 29.90557117 266 30 C256.13995471 41.77090678 245.17820498 52.63962436 233 62 C231.74906037 63.00143156 230.49913582 64.00413187 229.25 65.0078125 C196.14222129 91.31839529 154.47698932 110.88145818 111.37255859 106.74804688 C98.28887015 105.23385875 85.29714435 102.37197107 73.37890625 96.63671875 C67.80601275 95.14512328 63.10889365 97.14643153 58.30566406 99.82958984 C57.64791992 100.2158252 56.99017578 100.60206055 56.3125 101 C55.61479492 101.40299316 54.91708984 101.80598633 54.19824219 102.22119141 C42.9995614 108.8157421 33.31982282 117.00514469 24 126 C23.443125 126.53206055 22.88625 127.06412109 22.3125 127.61230469 C18.01599566 131.79736548 14.24649845 136.22290473 10.625 141 C10.06337158 141.73984131 9.50174316 142.47968262 8.9230957 143.24194336 C-3.30131353 159.59648029 -12.34941538 177.73507016 -19 197 C-19.2460498 197.69722168 -19.49209961 198.39444336 -19.74560547 199.11279297 C-30.77833924 231.07185924 -31.38261004 264.60039456 -31 298 C-30.99274902 298.96357422 -30.98549805 299.92714844 -30.97802734 300.91992188 C-30.83209071 314.06905982 -29.26966256 327.03251653 -27.625 340.0625 C-27.51999176 340.90361328 -27.41498352 341.74472656 -27.30679321 342.61132812 C-26.0501737 352.56602153 -24.46615935 362.26166763 -22 372 C-21.67018164 373.36083745 -21.34216521 374.72211246 -21.015625 376.08374023 C-15.05703122 401.35154034 -15.05703122 401.35154034 -7 426 C-6.61666504 427.01803711 -6.23333008 428.03607422 -5.83837891 429.08496094 C17.62998499 491.18668382 48.88820699 548.1588627 94.3046875 597.08203125 C96.96611039 599.96331082 99.5762328 602.8858045 102.1875 605.8125 C105.60685939 609.58242462 109.12213009 612.99508927 113.015625 616.265625 C115.23138271 618.20223213 117.26110492 620.26540932 119.3125 622.375 C124.22503843 627.33775177 129.53764602 631.66023506 135 636 C136.31051402 637.05391927 137.62037335 638.10865297 138.9296875 639.1640625 C140.28623077 640.25549123 141.64299994 641.34663925 143 642.4375 C143.64727051 642.95803955 144.29454102 643.4785791 144.96142578 644.01489258 C145.57228027 644.50368896 146.18313477 644.99248535 146.8125 645.49609375 C147.35519531 645.93107178 147.89789062 646.3660498 148.45703125 646.81420898 C149.92354519 647.94124351 151.46107356 648.97404904 153 650 C154.0209375 650.8353125 154.0209375 650.8353125 155.0625 651.6875 C159.24391893 654.97925533 163.62356135 657.97473367 168 661 C163.89729471 662.36756843 161.54136077 660.78009511 157.8125 659.0625 C156.74890259 658.58369385 156.74890259 658.58369385 155.66381836 658.09521484 C148.69190279 654.92455241 141.82985011 651.54265798 135.02099609 648.03710938 C133.01569755 647.00805547 131.00238019 645.99607201 128.98828125 644.984375 C105.41158936 632.98595089 83.5536284 617.58925982 63 601 C62.02289062 600.21753906 61.04578125 599.43507813 60.0390625 598.62890625 C53.83702629 593.6168966 47.8807612 588.383295 42 583 C40.59621094 581.73542969 40.59621094 581.73542969 39.1640625 580.4453125 C28.90391446 571.17791779 18.89940696 561.59732013 10 551 C9.2059375 550.08347656 8.411875 549.16695312 7.59375 548.22265625 C-9.64510235 528.25555714 -24.83010183 506.84344294 -38 484 C-38.45681152 483.20883789 -38.91362305 482.41767578 -39.38427734 481.60253906 C-44.53618365 472.62921513 -49.29829771 463.58193461 -53.52734375 454.13671875 C-54.89784517 451.06026025 -54.89784517 451.06026025 -56.50390625 448.57421875 C-58.44828109 445.22867562 -59.69591344 441.75878286 -61 438.125 C-62.4252692 434.19808643 -63.86226569 430.31622673 -65.53125 426.484375 C-67.10653694 422.7472581 -68.33177091 419.00307253 -69.5 415.125 C-69.93555186 413.70422887 -70.37174455 412.28365402 -70.80859375 410.86328125 C-71.01468262 410.19119629 -71.22077148 409.51911133 -71.43310547 408.82666016 C-72.11051116 406.6439085 -72.8277564 404.47658088 -73.5625 402.3125 C-78.35202462 388.07922343 -81.953438 373.8389209 -84.61010742 359.07519531 C-85.02865317 356.8474941 -85.49562396 354.63244421 -85.9609375 352.4140625 C-87.54607275 344.5507695 -88.50636248 336.5852332 -89.58789062 328.640625 C-89.75611328 327.42890625 -89.92433594 326.2171875 -90.09765625 324.96875 C-90.24726807 323.86982422 -90.39687988 322.77089844 -90.55102539 321.63867188 C-90.86301163 319.03160584 -90.86301163 319.03160584 -92 317 C-96.35253223 290.88123018 -95.13867963 262.17883387 -92 236 C-91.90928223 235.22140625 -91.81856445 234.4428125 -91.72509766 233.640625 C-90.35574674 222.06724023 -90.35574674 222.06724023 -89 218 C-88.84371293 216.08442735 -88.69081876 214.16850296 -88.55712891 212.2512207 C-87.47125502 197.71128202 -84.09193878 183.65952232 -80.8046875 169.49609375 C-80.16816577 166.73062312 -79.55482718 163.96391646 -78.96875 161.1875 C-74.16840296 139.14146172 -67.51308324 115.2492622 -57.0625 95.1875 C-55.38957572 91.95061586 -54.11827736 88.6744657 -52.875 85.25 C-45.31952078 65.28689895 -34.12688834 46.49736746 -22 29 C-21.55398438 28.3503125 -21.10796875 27.700625 -20.6484375 27.03125 C-14.18399462 17.62842399 -7.49737805 8.60871506 0 0 Z " fill="#98E445" transform="translate(549,906)"/>
<path d="M0 0 C0.44988281 1.11375 0.89976562 2.2275 1.36328125 3.375 C11.03409421 26.58443915 24.57513801 44.85280395 48.20117188 54.81274414 C67.22384157 62.41221845 90.80238738 60.27083089 109.75 53.0625 C111.18152158 52.40649188 112.59966092 51.72017439 114 51 C114.74894531 50.63132812 115.49789062 50.26265625 116.26953125 49.8828125 C128.15569472 43.68661826 136.48615829 34.9292243 144 24 C148.3979568 27.45783719 151.90953721 31.00815771 155.3125 35.4375 C156.02188721 36.35438599 156.02188721 36.35438599 156.74560547 37.28979492 C183.00969042 71.71894894 197.77884301 115.3537251 192.50390625 158.87890625 C191.88580435 162.97412246 191.00616397 166.984257 190 171 C189.83371094 171.68819824 189.66742187 172.37639648 189.49609375 173.08544922 C183.1603645 198.66888927 169.51387402 221.56447042 147 236 C123.87299331 249.20046588 98.05943251 252.75146071 72.25708008 246.12402344 C65.57334233 244.28572689 59.2169193 242.09156585 53 239 C51.2365625 238.13761719 51.2365625 238.13761719 49.4375 237.2578125 C35.45169439 230.2197359 23.58955159 221.1938539 12.37207031 210.32080078 C11.22221851 209.21391497 10.04747922 208.13296185 8.8671875 207.05859375 C-13.89173681 185.77566662 -26.6975984 156.35730229 -35.375 127.0625 C-35.62588379 126.23532471 -35.87676758 125.40814941 -36.13525391 124.5559082 C-42.33247625 102.81380654 -42.10593163 71.46481417 -35 50 C-34.79101074 49.35450195 -34.58202148 48.70900391 -34.36669922 48.04394531 C-29.55062566 33.69312838 -21.78893545 18.76612586 -11 8 C-10.34 8 -9.68 8 -9 8 C-9 7.34 -9 6.68 -9 6 C-7.5390625 4.4921875 -7.5390625 4.4921875 -5.625 2.875 C-4.99851562 2.33617187 -4.37203125 1.79734375 -3.7265625 1.2421875 C-2 0 -2 0 0 0 Z " fill="#E98919" transform="translate(582,738)"/>
<path d="M0 0 C4.2580075 1.41933583 6.60875595 4.51082858 9.609375 7.72265625 C25.76119912 24.53021682 48.42233473 40.30193331 69.9921875 49.15234375 C72.48410085 50.20437721 74.92383374 51.35635 77.375 52.5 C81.49514263 54.39028522 85.58080727 55.9533162 89.9296875 57.2265625 C90.61289062 57.48179687 91.29609375 57.73703125 92 58 C92.8971875 58.29390625 93.794375 58.5878125 94.71875 58.890625 C97.47551937 61.43969257 97.41141916 62.23564532 97.6640625 65.8828125 C97.68540434 67.96347296 97.66978789 70.04471217 97.625 72.125 C97.61098145 73.23649414 97.59696289 74.34798828 97.58251953 75.49316406 C97.23844179 87.65057748 94.95147236 99.23478044 92 111 C91.76474609 111.9389209 91.52949219 112.8778418 91.28710938 113.84521484 C88.26271258 125.61994976 84.35961502 136.92834216 79.74462891 148.16845703 C78.8082747 150.47158138 77.9409346 152.79927667 77.0625 155.125 C72.92417871 165.3553565 68.13140824 175.52058166 61 184 C60.4225 184.845625 59.845 185.69125 59.25 186.5625 C48.68228483 198.0108581 31.6219185 204.33808285 16.29052734 205.14208984 C-8.49100757 205.93115763 -8.49100757 205.93115763 -18 201 C-19.27423828 200.36384766 -19.27423828 200.36384766 -20.57421875 199.71484375 C-37.51333329 190.40222182 -47.25171604 175.0711331 -55 158 C-55.69222656 156.53433594 -55.69222656 156.53433594 -56.3984375 155.0390625 C-63.68648608 138.09551006 -66.56689078 119.57745144 -66.6875 101.25 C-66.70659424 99.95537842 -66.72568848 98.66075684 -66.74536133 97.3269043 C-66.59352626 84.78564869 -62.95603055 73.55193308 -56.9375 62.5625 C-56.56028809 61.86423096 -56.18307617 61.16596191 -55.79443359 60.4465332 C-48.65930214 47.6576075 -39.17946187 36.45874701 -29 26 C-28.41814941 25.39768555 -27.83629883 24.79537109 -27.23681641 24.17480469 C-18.74577243 15.41599519 -10.19557488 6.79704992 0 0 Z " fill="#E58515" transform="translate(649,581)"/>
<path d="M0 0 C2.06602536 1.21084272 3.71389457 2.48196284 5.45703125 4.12109375 C6.28267578 4.88292969 6.28267578 4.88292969 7.125 5.66015625 C14.54687557 13.39356734 16.269214 23.93096297 18.51953125 34.03125 C19.23557286 37.22796828 20.07924707 40.35691582 21.01953125 43.49609375 C22.64390561 49.26085711 23.49631051 55.13009878 24.36743164 61.04638672 C24.94389599 64.95421686 25.59390159 68.80235318 26.4453125 72.66015625 C39.98651905 139.63353712 35.39627279 226.79511261 14.45703125 291.12109375 C14.09351563 292.24620361 13.73 293.37131348 13.35546875 294.53051758 C11.68703292 299.62967458 9.95549175 304.36969083 7.43359375 309.10546875 C6.35195576 311.33796957 5.60559504 313.57675453 4.83203125 315.93359375 C1.68848588 324.78164231 -3.03505642 332.91252398 -7.54296875 341.12109375 C-8.06133301 342.06726562 -8.57969727 343.0134375 -9.11376953 343.98828125 C-15.75780391 356.06324822 -22.62732101 367.83625494 -30.54296875 379.12109375 C-31.33743552 380.27460466 -32.13170532 381.42825125 -32.92578125 382.58203125 C-61.77029093 424.09993706 -61.77029093 424.09993706 -83.54296875 431.12109375 C-88.01905118 431.65962242 -92.1463318 431.67974853 -96.35546875 429.99609375 C-101.79163649 425.3365214 -106.63075877 419.19464715 -107.92797852 411.97973633 C-108.07846823 409.76158323 -108.09851786 407.59353903 -108.04296875 405.37109375 C-108.03015869 404.58395996 -108.01734863 403.79682617 -108.00415039 402.98583984 C-107.48442104 387.89980873 -100.0823562 375.52872371 -89.9296875 364.73828125 C-69.55478692 342.39591891 -52.19342962 313.72212959 -42.54296875 285.12109375 C-42.04621538 283.78996031 -41.54475513 282.4605757 -41.0390625 281.1328125 C-36.53255062 269.19967241 -33.31731044 256.8463197 -30.1706543 244.50073242 C-29.73505169 242.84930552 -29.27650203 241.20382826 -28.80004883 239.5637207 C-26.73813472 232.4147579 -25.50706417 225.29719791 -24.48046875 217.93359375 C-24.23973633 216.2774707 -24.23973633 216.2774707 -23.99414062 214.58789062 C-23.66505414 212.29750159 -23.34524407 210.00576369 -23.03393555 207.71289062 C-22.70200386 205.28455696 -22.35138764 202.85871559 -21.98364258 200.43554688 C-20.39113468 189.26749329 -20.26728158 178.26364477 -20.35546875 166.99609375 C-20.36640282 165.03320329 -20.3773074 163.07031266 -20.38818359 161.10742188 C-20.4191095 156.30349852 -20.46751315 151.49990126 -20.51947021 146.69616699 C-20.54062091 144.3783801 -20.55059499 142.06103423 -20.55322266 139.74316406 C-20.62027479 111.58832728 -25.47129073 83.80845564 -32.453125 56.5703125 C-34.32011764 48.62473917 -34.87813097 41.01942726 -34.98046875 32.87109375 C-35.00270508 31.87706543 -35.02494141 30.88303711 -35.04785156 29.85888672 C-35.01750126 19.70333945 -32.3255113 11.38971954 -25.51953125 3.77734375 C-18.4931885 -2.11034266 -8.58939686 -2.96868555 0 0 Z " fill="#FDF9F9" transform="translate(1227.54296875,1024.87890625)"/>
<path d="M0 0 C0.66 0 1.32 0 2 0 C2.38671875 1.134375 2.7734375 2.26875 3.171875 3.4375 C3.69762949 4.95843263 4.22368746 6.47926039 4.75 8 C5.00265625 8.74378906 5.2553125 9.48757813 5.515625 10.25390625 C7.07231194 14.7293812 8.89130408 18.89126483 11.06738281 23.09765625 C12.47879375 25.97663899 13.47887771 28.96423104 14.5 32 C15.81861054 35.79502546 17.10538504 39.45523652 19 43 C20.86046498 46.4893058 22.13895956 50.07869058 23.4375 53.8125 C25.6137284 60.06748778 28.21189581 66.00051507 31 72 C39.77885737 91.09318029 44.28560814 113.26499503 37.12475586 133.57568359 C36.43852934 135.39226263 35.71982153 137.19646925 35 139 C34.61585938 140.07636719 34.23171875 141.15273438 33.8359375 142.26171875 C25.1058936 165.45275373 4.3838415 181.6326037 -17.52734375 191.60546875 C-28.00174547 195.85252105 -38.17283661 197.37603502 -49.4375 197.3125 C-50.94364868 197.30730347 -50.94364868 197.30730347 -52.48022461 197.30200195 C-64.34150061 197.12798145 -75.14709281 195.23844283 -83.875 186.625 C-94.66401161 175.40120733 -100.60708167 160.98546121 -107 147 C-107.35570068 146.23816406 -107.71140137 145.47632813 -108.07788086 144.69140625 C-110.50575886 139.40302766 -112.37810051 134.0662366 -114.0625 128.5 C-114.55265386 126.90602486 -115.04353719 125.31227385 -115.53515625 123.71875 C-115.77596924 122.93516113 -116.01678223 122.15157227 -116.26489258 121.34423828 C-116.9875566 119.03968166 -117.74467064 116.74974699 -118.515625 114.4609375 C-119.99998437 110.0421547 -121.36644274 105.59504268 -122.6875 101.125 C-122.91244141 100.37992188 -123.13738281 99.63484375 -123.36914062 98.8671875 C-124.27148829 95.81730726 -125 93.19830164 -125 90 C-124.34217529 89.74420166 -123.68435059 89.48840332 -123.0065918 89.22485352 C-74.11590879 70.13882203 -29.72166012 44.58249018 0 0 Z " fill="#E28110" transform="translate(1130,547)"/>
<path d="M0 0 C5.02482372 3.83216128 8.92288086 8.45550203 10.38671875 14.69921875 C10.8809436 21.69524601 8.23434215 26.95663295 3.8125 32.25 C-7.5730475 42.69818315 -23.37623572 44.93775036 -38.18505859 44.38623047 C-49.30558721 43.62967658 -60.74823159 38.72730587 -68.1875 30.25 C-71.47635297 25.23615787 -72.98666409 20.47086721 -71.90625 14.5078125 C-69.33490019 6.43042017 -64.15930885 1.89312438 -57.00390625 -2.3125 C-39.52487609 -11.23383578 -16.82065552 -10.06989076 0 0 Z " fill="#F94671" transform="translate(740.1875,468.75)"/>
<path d="M0 0 C0.74378906 0.19464844 1.48757813 0.38929688 2.25390625 0.58984375 C10.11833541 2.90130206 18.77965053 6.79876508 23.2109375 14.01953125 C24.83570382 18.09753385 25.01641253 21.74042907 24 26 C20.04109229 33.55669884 12.56046394 36.87980853 5 40 C4.05769531 40.41507812 3.11539062 40.83015625 2.14453125 41.2578125 C-12.62814054 46.83903328 -31.46268303 45.78270121 -46 40 C-52.24795904 37.10154841 -58.7308419 33.30755209 -62 27 C-62.90701695 22.64022104 -62.34574014 19.08043794 -61 14.875 C-55.12833191 6.43447713 -46.68442112 1.54070691 -36.74609375 -0.75 C-24.71657517 -2.72070611 -11.82728074 -3.30498706 0 0 Z " fill="#FA6589" transform="translate(1082,453)"/>
<path d="M0 0 C0.33 1.32 0.66 2.64 1 4 C1.95261719 3.94199219 2.90523437 3.88398438 3.88671875 3.82421875 C13.98077602 3.46112316 13.98077602 3.46112316 16.97265625 5.04296875 C18.25 6.375 18.25 6.375 20 9 C23.00617269 12.00617269 25.82381598 11.59585316 30 12 C30 12.66 30 13.32 30 14 C30.99 14.33 31.98 14.66 33 15 C33 15.66 33 16.32 33 17 C34.485 17.495 34.485 17.495 36 18 C38.07264245 33.5756002 38.07264245 33.5756002 33.57421875 40.14453125 C27.85366015 46.88712514 19.85546717 52.41752482 11 54 C-1.02352047 54.95750447 -12.11971897 53.94298941 -22 46.1875 C-28.18104487 40.25246686 -31.13749658 33.8324035 -31.3125 25.3125 C-31.24716629 17.39078819 -29.71728632 12.98238743 -24.4375 7.1875 C-23.2309375 6.1046875 -23.2309375 6.1046875 -22 5 C-21.54625 4.4225 -21.0925 3.845 -20.625 3.25 C-18.03219888 1.2555376 -15.18751699 1.34151968 -12 1 C-8.02252189 -0.32582604 -4.16310115 0 0 0 Z " fill="#0C0C0D" transform="translate(892,462)"/>
<path d="M0 0 C5.04737676 4.13133742 8.28787654 7.67986704 9.05859375 14.37109375 C9.3992972 21.76435857 8.73182215 26.82358827 3.71484375 32.38671875 C-0.95954522 37.46707202 -5.69020047 39.61017059 -12.28515625 41.38671875 C-13.27515625 41.71671875 -14.26515625 42.04671875 -15.28515625 42.38671875 C-23.12724774 43.22064259 -30.54663777 42.04722693 -37.03515625 37.4296875 C-43.43806395 31.96674154 -46.83608562 28.02711525 -47.66015625 19.51171875 C-47.31911751 11.86058873 -44.66162724 5.76318974 -39.28515625 0.38671875 C-27.95274517 -8.4821247 -11.65278779 -8.22666898 0 0 Z " fill="#F8F7F6" transform="translate(1109.28515625,1458.61328125)"/>
<path d="M0 0 C0.33 0 0.66 0 1 0 C1.07476563 0.64066406 1.14953125 1.28132812 1.2265625 1.94140625 C2.2223037 8.4918214 3.81120201 12.74867391 9 17 C14.63277289 20.96955255 20.94090906 22.69454003 27.5625 24.25 C28.57715332 24.49496216 28.57715332 24.49496216 29.61230469 24.74487305 C46.35917457 28.3283061 64.23224558 27.21752746 81.26513672 27.24023438 C84.08850935 27.24463279 86.91157876 27.25860703 89.73486328 27.28125 C112.03306714 27.46834391 112.03306714 27.46834391 134 24 C135.40274202 23.69346788 136.80608024 23.38965303 138.20996094 23.08837891 C146.40557021 21.27546199 151.83676314 18.63575263 158 13 C158.99 12.34 159.98 11.68 161 11 C161.35773958 14.75626559 161.13556761 16.73929307 159.375 20.125 C151.65899164 29.46543117 138.68782891 31.59594564 127.3125 33.625 C126.13042969 33.83664795 124.94835937 34.0482959 123.73046875 34.26635742 C88.24189512 40.37664248 35.30706275 46.03513557 4 24 C0.18879874 20.94948657 -2.81743225 17.84852776 -4 13 C-4.48671266 8.53846725 -4.28819422 6.51131233 -2.0625 2.5625 C-1.381875 1.716875 -0.70125 0.87125 0 0 Z " fill="#0E0700" transform="translate(814,541)"/>
<path d="M0 0 C4.31347185 1.30711268 7.01017136 3.56597816 10.25390625 6.5625 C12.07672234 8.06316291 13.8893419 8.96190081 16 10 C17.33333333 11.33333333 18.66666667 12.66666667 20 14 C20.99 14.33 21.98 14.66 23 15 C23.633807 24.52118964 23.18362861 32.7317924 18 41 C15.08906495 43.70334064 13.53030884 44.88215359 9.625 45.75 C5.06165115 44.80585886 3.55080029 43.06693024 0.578125 39.62890625 C-3.56152308 32.73290833 -4.50422608 25.86577104 -4.4375 17.9375 C-4.45748047 17.09123047 -4.47746094 16.24496094 -4.49804688 15.37304688 C-4.49329788 9.21359791 -3.103397 5.31571961 0 0 Z " fill="#050403" transform="translate(756,411)"/>
<path d="M0 0 C0.97839844 0.41572266 0.97839844 0.41572266 1.9765625 0.83984375 C6.64303689 2.77388402 10.93022603 4.46633958 16 5 C16 5.66 16 6.32 16 7 C19.3 7.33 22.6 7.66 26 8 C26.46049049 16.27603736 26.3847391 22.81710503 22 30 C21.649375 30.62132812 21.29875 31.24265625 20.9375 31.8828125 C19.31181874 34.31004494 17.73137286 35.80090405 14.890625 36.57421875 C11.63346404 36.82014533 9.11741366 36.61285463 6.2265625 35.02734375 C1.03973328 30.51190613 -1.54333774 23.71503788 -2.1953125 16.98339844 C-2.88587642 4.32881463 -2.88587642 4.32881463 0 0 Z " fill="#060504" transform="translate(997,388)"/>
<path d="M0 0 C7.86137497 4.82242554 13.86686208 10.59950118 16.6171875 19.60546875 C16.96878025 22.99186212 16.94138902 26.21936402 16.6171875 29.60546875 C13.81928247 26.80756372 14.2056804 24.42567029 13.9609375 20.6015625 C13.8475 19.94285156 13.7340625 19.28414063 13.6171875 18.60546875 C12.9571875 18.27546875 12.2971875 17.94546875 11.6171875 17.60546875 C11.6171875 16.94546875 11.6171875 16.28546875 11.6171875 15.60546875 C9.9671875 15.27546875 8.3171875 14.94546875 6.6171875 14.60546875 C6.6171875 14.27546875 6.6171875 13.94546875 6.6171875 13.60546875 C5.5653125 13.35796875 4.5134375 13.11046875 3.4296875 12.85546875 C-0.2048683 11.82334337 -2.60958619 10.2155641 -5.3828125 7.60546875 C-5.8778125 6.61546875 -5.8778125 6.61546875 -6.3828125 5.60546875 C-9.65836858 5.13545842 -9.65836858 5.13545842 -13.4453125 4.98046875 C-15.38083984 4.86832031 -15.38083984 4.86832031 -17.35546875 4.75390625 C-18.85400391 4.68042969 -18.85400391 4.68042969 -20.3828125 4.60546875 C-20.7128125 3.28546875 -21.0428125 1.96546875 -21.3828125 0.60546875 C-23.35817995 0.95333583 -23.35817995 0.95333583 -25.3828125 1.60546875 C-25.7128125 2.26546875 -26.0428125 2.92546875 -26.3828125 3.60546875 C-26.7128125 2.61546875 -27.0428125 1.62546875 -27.3828125 0.60546875 C-31.8378125 2.09046875 -31.8378125 2.09046875 -36.3828125 3.60546875 C-37.0428125 2.94546875 -37.7028125 2.28546875 -38.3828125 1.60546875 C-37.1132595 0.95712221 -35.84211544 0.3118906 -34.5703125 -0.33203125 C-33.86261719 -0.69167969 -33.15492188 -1.05132812 -32.42578125 -1.421875 C-22.94885702 -5.93383319 -9.1856207 -4.54192049 0 0 Z " fill="#5E6061" transform="translate(913.3828125,461.39453125)"/>
<path d="M0 0 C5.60169749 3.40495338 8.10022021 7.77658345 10 14 C10.25 17.5625 10.25 17.5625 10 20 C6.7 19.67 3.4 19.34 0 19 C0 18.34 0 17.68 0 17 C-0.78375 17.0825 -1.5675 17.165 -2.375 17.25 C-7.31982371 16.90897767 -11.60304691 15.26886091 -16 13 C-16.33 12.34 -16.66 11.68 -17 11 C-15.25036799 7.07582534 -12.90448685 3.76167314 -9.625 1 C-6.09896487 -0.34325148 -3.74909452 -0.5261887 0 0 Z " fill="#35393E" transform="translate(1013,376)"/>
<path d="M0 0 C2.4375 0.40234375 2.4375 0.40234375 5.3125 2.33984375 C9.21965594 7.97074496 12.15896436 13.36806628 11.4375 20.40234375 C7.55636476 19.84789586 6.14886783 18.11371158 3.4375 15.40234375 C1.15582952 13.94857962 -1.17747119 12.68659003 -3.5625 11.40234375 C-3.5625 10.74234375 -3.5625 10.08234375 -3.5625 9.40234375 C-4.738125 9.03109375 -4.738125 9.03109375 -5.9375 8.65234375 C-8.88567108 7.24845276 -9.4649777 6.39558638 -10.5625 3.40234375 C-7.47304303 -0.39385175 -4.65563553 -0.1691728 0 0 Z " fill="#75736F" transform="translate(767.5625,405.59765625)"/>
<path d="M0 0 C4.31347185 1.30711268 7.01017136 3.56597816 10.25390625 6.5625 C12.07672234 8.06316291 13.8893419 8.96190081 16 10 C17.33333333 11.33333333 18.66666667 12.66666667 20 14 C20.99 14.33 21.98 14.66 23 15 C23 17.31 23 19.62 23 22 C22.67 21.34 22.34 20.68 22 20 C21.34 19.835 20.68 19.67 20 19.5 C19.34 19.335 18.68 19.17 18 19 C17.67 18.34 17.34 17.68 17 17 C16.154375 16.505 15.30875 16.01 14.4375 15.5 C13.633125 15.005 12.82875 14.51 12 14 C12 13.34 12 12.68 12 12 C10.68 11.67 9.36 11.34 8 11 C8 10.34 8 9.68 8 9 C7.2575 8.855625 6.515 8.71125 5.75 8.5625 C3.47972261 8.09812508 1.24240521 7.58136431 -1 7 C-1.66 8.65 -2.32 10.3 -3 12 C-3.88336837 9.5332355 -4.1312406 8.36140628 -3.22265625 5.859375 C-2.83980469 5.16328125 -2.45695313 4.4671875 -2.0625 3.75 C-1.68222656 3.04359375 -1.30195312 2.3371875 -0.91015625 1.609375 C-0.60980469 1.07828125 -0.30945313 0.5471875 0 0 Z " fill="#272C30" transform="translate(756,411)"/>
<path d="M0 0 C4.85373486 3.1137167 6.40189201 5.58293912 8 11 C-6.78132118 8.10933941 -6.78132118 8.10933941 -13 5 C-9.51051079 -0.15115074 -6.11530248 -0.62189517 0 0 Z " fill="#84817B" transform="translate(1013,376)"/>
<path d="M0 0 C8.92229299 -0.77961783 8.92229299 -0.77961783 12.9375 2.125 C15.00960461 5.01338824 16.67887623 7.69719058 18 11 C17.67 11.66 17.34 12.32 17 13 C16.278125 12.54625 15.55625 12.0925 14.8125 11.625 C12.15703934 9.97508488 12.15703934 9.97508488 9.6875 9.1875 C5.67777161 7.41575955 2.42727344 4.70439939 -1 2 C-0.67 1.34 -0.34 0.68 0 0 Z " fill="#A3998E" transform="translate(760,406)"/>
<path d="M0 0 C0.97839844 0.41572266 0.97839844 0.41572266 1.9765625 0.83984375 C6.64303689 2.77388402 10.93022603 4.46633958 16 5 C16 5.66 16 6.32 16 7 C19.3 7.33 22.6 7.66 26 8 C26 12.29 26 16.58 26 21 C25.67 21 25.34 21 25 21 C24.896875 19.906875 24.79375 18.81375 24.6875 17.6875 C24.2764201 14.16790659 24.2764201 14.16790659 22.8125 12.1875 C20.35062424 10.57454692 17.80400571 9.87968807 15 9 C14.071875 8.484375 13.14375 7.96875 12.1875 7.4375 C8.14202835 5.61307161 4.39095325 5.28297254 0 5 C0 5.66 0 6.32 0 7 C-0.66 7 -1.32 7 -2 7 C-1.125 1.125 -1.125 1.125 0 0 Z " fill="#212427" transform="translate(997,388)"/>
<path d="M0 0 C1.29808594 -0.00128906 2.59617187 -0.00257813 3.93359375 -0.00390625 C4.9383374 -0.00076416 4.9383374 -0.00076416 5.96337891 0.00244141 C7.99519377 0.00777935 10.02678582 0.00248772 12.05859375 -0.00390625 C18.50690891 0.00248455 24.76166399 0.10625916 31.1328125 1.1328125 C31.1328125 1.4628125 31.1328125 1.7928125 31.1328125 2.1328125 C29.58339966 2.1625415 29.58339966 2.1625415 28.00268555 2.19287109 C24.12030231 2.2697285 20.23825543 2.35831237 16.35620117 2.45019531 C14.68537095 2.48815776 13.01446807 2.52306357 11.34350586 2.5546875 C-1.38757309 2.78723745 -1.38757309 2.78723745 -13.92260742 4.91259766 C-14.88517456 5.021604 -14.88517456 5.021604 -15.8671875 5.1328125 C-16.5271875 4.4728125 -17.1871875 3.8128125 -17.8671875 3.1328125 C-11.9573387 0.52552627 -6.41767033 0.00616322 0 0 Z " fill="#DA7D0F" transform="translate(602.8671875,251.8671875)"/>
<path d="M0 0 C4.48338252 0.57479263 8.50597822 1.76211992 12.75 3.24609375 C14.80064445 3.93320205 16.83983073 4.47995283 18.9375 5 C22 6 22 6 24 9 C23.625 11.1875 23.625 11.1875 23 13 C23 12.01 23 11.02 23 10 C22.27296875 10.03867187 21.5459375 10.07734375 20.796875 10.1171875 C17.80269217 9.99173291 15.96892996 9.34229871 13.25 8.125 C8.53694182 6.12938077 4.01983273 4.97158053 -1 4 C-0.67 2.68 -0.34 1.36 0 0 Z " fill="#63605C" transform="translate(999,381)"/>
<path d="M0 0 C0.33 0 0.66 0 1 0 C0.99777939 0.6742955 0.99555878 1.348591 0.99327087 2.0433197 C0.97122071 9.03432691 0.95609453 16.02532431 0.94506836 23.01635742 C0.94002623 25.62866619 0.93319275 28.24097211 0.92456055 30.85327148 C0.91248964 34.59880268 0.90677065 38.34429672 0.90234375 42.08984375 C0.89718246 43.26586655 0.89202118 44.44188934 0.88670349 45.65354919 C0.88662796 46.73459427 0.88655243 47.81563934 0.88647461 48.92944336 C0.884254 49.88652695 0.88203339 50.84361053 0.87974548 51.82969666 C0.75687501 53.97917624 0.75687501 53.97917624 2 55 C1.90913549 57.53541298 1.7629055 60.03554784 1.5625 62.5625 C1.51029297 63.27341797 1.45808594 63.98433594 1.40429688 64.71679688 C1.27425893 66.47821999 1.13773103 68.23916173 1 70 C0.67 70 0.34 70 0 70 C-0.94853887 62.81955135 -1.14597904 55.79268013 -1.1328125 48.5546875 C-1.13376923 47.38543732 -1.13472595 46.21618713 -1.13571167 45.01150513 C-1.13638904 42.55242865 -1.13456581 40.09335034 -1.13037109 37.63427734 C-1.12500692 33.8798419 -1.13033617 30.12552555 -1.13671875 26.37109375 C-1.13605808 23.97395807 -1.13477714 21.57682247 -1.1328125 19.1796875 C-1.13483673 18.06286591 -1.13686096 16.94604431 -1.13894653 15.79537964 C-1.12284071 10.42256925 -0.95009867 5.292059 0 0 Z " fill="#A75A01" transform="translate(616,406)"/>
<path d="M0 0 C2.4972131 1.98439256 3.70264253 4.10589487 5 7 C3.02 7 1.04 7 -1 7 C-1.33 5.68 -1.66 4.36 -2 3 C-3.97536745 3.34786708 -3.97536745 3.34786708 -6 4 C-6.33 4.66 -6.66 5.32 -7 6 C-7.33 5.01 -7.66 4.02 -8 3 C-12.455 4.485 -12.455 4.485 -17 6 C-17.66 5.34 -18.32 4.68 -19 4 C-12.79651646 0.25450051 -7.28140662 -1.30571266 0 0 Z " fill="#494847" transform="translate(894,459)"/>
<path d="M0 0 C13.38707596 -0.6693538 24.06678175 -0.34454421 34.75 8.8125 C35.84833247 9.85948766 36.9380206 10.91615632 38 12 C34.06845568 12 31.4934597 10.74672985 28 9 C27.67 8.01 27.34 7.02 27 6 C24.03 5.505 24.03 5.505 21 5 C21 4.34 21 3.68 21 3 C19.68 3 18.36 3 17 3 C17 2.34 17 1.68 17 1 C11.39 1 5.78 1 0 1 C0 0.67 0 0.34 0 0 Z " fill="#847C73" transform="translate(886,458)"/>
<path d="M0 0 C0 3 0 3 -1.96484375 5.140625 C-2.4222998 5.57052734 -2.87975586 6.00042969 -3.35107422 6.44335938 C-5.31579446 8.29812044 -7.18659239 10.23114324 -9.06640625 12.171875 C-10.56493586 13.69808194 -12.0636378 15.22411969 -13.5625 16.75 C-14.31724609 17.52988281 -15.07199219 18.30976562 -15.84960938 19.11328125 C-16.94692383 20.22509766 -16.94692383 20.22509766 -18.06640625 21.359375 C-18.72584229 22.03452148 -19.38527832 22.70966797 -20.06469727 23.40527344 C-22.08928234 25.07357036 -23.43552587 25.60167667 -26 26 C-21.36881507 20.44110553 -16.44038605 15.28883962 -11.3125 10.1875 C-10.55388672 9.42501953 -9.79527344 8.66253906 -9.01367188 7.87695312 C-8.28341797 7.14798828 -7.55316406 6.41902344 -6.80078125 5.66796875 C-6.14247314 5.01078857 -5.48416504 4.3536084 -4.8059082 3.67651367 C-3 2 -3 2 0 0 Z " fill="#CC6F01" transform="translate(638,590)"/>
<path d="M0 0 C0.33 0.99 0.66 1.98 1 3 C0.29875 3.66644531 -0.4025 4.33289063 -1.125 5.01953125 C-6.9487676 10.64769767 -11.90675138 16.23976556 -16.44140625 22.98046875 C-16.95574219 23.64691406 -17.47007812 24.31335938 -18 25 C-18.66 25 -19.32 25 -20 25 C-18.67692317 21.26773849 -17.04826781 18.51129891 -14.5625 15.4375 C-13.66724609 14.32181641 -13.66724609 14.32181641 -12.75390625 13.18359375 C-12.17511719 12.46300781 -11.59632813 11.74242187 -11 11 C-10.47277344 10.24847656 -9.94554687 9.49695313 -9.40234375 8.72265625 C-8.93957031 8.15417969 -8.47679687 7.58570313 -8 7 C-7.34 7 -6.68 7 -6 7 C-6 6.34 -6 5.68 -6 5 C-4.04072937 3.2856382 -2.04119788 1.61594832 0 0 Z " fill="#C96D01" transform="translate(579,739)"/>
<path d="M0 0 C0.78375 0.04125 1.5675 0.0825 2.375 0.125 C2.375 0.785 2.375 1.445 2.375 2.125 C3.035 1.795 3.695 1.465 4.375 1.125 C8.73281125 1.24620335 13.07359466 1.62370522 17.41845703 1.97216797 C19.20369401 2.11161872 20.99049073 2.23072098 22.77734375 2.34765625 C24.24880859 2.45400391 24.24880859 2.45400391 25.75 2.5625 C27.06097656 2.65337891 27.06097656 2.65337891 28.3984375 2.74609375 C29.37683594 2.93365234 29.37683594 2.93365234 30.375 3.125 C30.87 4.115 30.87 4.115 31.375 5.125 C23.18858976 5.34722755 15.30076053 4.68015163 7.1875 3.625 C6.04474609 3.48191406 4.90199219 3.33882812 3.72460938 3.19140625 C0.94058681 2.84194735 -1.84250525 2.48638792 -4.625 2.125 C-2.625 0.125 -2.625 0.125 0 0 Z " fill="#D37201" transform="translate(807.625,640.875)"/>
<path d="M0 0 C2.72253295 0.06553143 5.40977534 0.19337962 8.125 0.375 C9.24648438 0.44074219 9.24648438 0.44074219 10.390625 0.5078125 C13.88193701 0.7267798 17.28811514 1.04167326 20.75390625 1.54296875 C24.27535914 2.03876898 27.54449028 1.99206152 31.08203125 1.83984375 C33 2 33 2 35 4 C26.92461414 4.10579108 18.87870103 4.03764046 10.8125 3.625 C10.09457275 3.59414307 9.37664551 3.56328613 8.63696289 3.53149414 C4.98512181 3.32280511 2.12024692 2.98341277 -1 1 C-0.67 0.67 -0.34 0.34 0 0 Z " fill="#C66D04" transform="translate(848,565)"/>
<path d="M0 0 C6.47509827 0.2755361 11.75520127 1.40068553 17.67578125 4.0625 C20.10585141 5.04269637 22.42179898 5.56193399 25 6 C24.67 6.66 24.34 7.32 24 8 C22.02 8 20.04 8 18 8 C18 7.34 18 6.68 18 6 C16.5459375 5.8453125 16.5459375 5.8453125 15.0625 5.6875 C10.51406161 5.05370121 6.30582896 3.55244173 2 2 C1.67 2.66 1.34 3.32 1 4 C0.34 4 -0.32 4 -1 4 C-0.67 2.68 -0.34 1.36 0 0 Z " fill="#494A4B" transform="translate(997,385)"/>
<path d="M0 0 C0.88734283 2.91741406 1.03297323 4.98576486 0.4765625 7.9765625 C0.2763147 9.10010132 0.2763147 9.10010132 0.07202148 10.24633789 C-0.07549561 11.03129639 -0.2230127 11.81625488 -0.375 12.625 C-1.30034773 17.77047074 -2.16103882 22.84350463 -2.5625 28.0625 C-2.706875 29.361875 -2.85125 30.66125 -3 32 C-3.99 32.495 -3.99 32.495 -5 33 C-5.73933253 22.71095564 -4.71127972 9.42255943 0 0 Z " fill="#BF6701" transform="translate(548,786)"/>
<path d="M0 0 C4.44930095 1.13413554 8.35034092 2.15653891 12 5 C12.56762695 7.63549805 12.56762695 7.63549805 12.48828125 10.76171875 C12.47216797 11.87998047 12.45605469 12.99824219 12.43945312 14.15039062 C12.39755859 15.31763672 12.35566406 16.48488281 12.3125 17.6875 C12.27866211 19.45577148 12.27866211 19.45577148 12.24414062 21.25976562 C12.18513901 24.17444548 12.10286341 27.08659161 12 30 C11.67 30 11.34 30 11 30 C9.79483714 25.10845663 9.66538566 20.19724878 9.4375 15.1875 C9.39431641 14.30384766 9.35113281 13.42019531 9.30664062 12.50976562 C9.20108464 10.34000377 9.10008929 8.1700209 9 6 C6.525 5.01 6.525 5.01 4 4 C4 3.34 4 2.68 4 2 C2.68 1.67 1.36 1.34 0 1 C0 0.67 0 0.34 0 0 Z " fill="#B96401" transform="translate(734,637)"/>
<path d="M0 0 C0.33 0.99 0.66 1.98 1 3 C-5.37214974 11.95545369 -15.48917319 18.77623203 -26 22 C-28.3203125 21.625 -28.3203125 21.625 -30 21 C-29.09378906 20.64808594 -28.18757812 20.29617188 -27.25390625 19.93359375 C-15.83482241 15.30554178 -7.81873582 9.67914242 0 0 Z " fill="#E5972D" transform="translate(711,760)"/>
<path d="M0 0 C0.33 0 0.66 0 1 0 C1.0093457 0.55349121 1.01869141 1.10698242 1.02832031 1.67724609 C1.07003505 15.42037593 1.07003505 15.42037593 5.2578125 28.3203125 C5.50273438 28.87460937 5.74765625 29.42890625 6 30 C5.67 30.66 5.34 31.32 5 32 C0.69406355 28.28507443 -0.07537409 23.4329743 -1 18 C-1.7227388 5.1682164 -1.7227388 5.1682164 0 0 Z " fill="#DC7A08" transform="translate(751,419)"/>
<path d="M0 0 C2.44932852 1.43323154 3.98246934 2.93326127 6 5 C6 5.66 6 6.32 6 7 C2.19281452 6.27246734 -1.55485569 5.38723428 -5.3125 4.4375 C-6.38113281 4.16808594 -7.44976563 3.89867187 -8.55078125 3.62109375 C-9.35902344 3.41613281 -10.16726563 3.21117187 -11 3 C-8.92638795 -1.1472241 -4.05692698 -0.41256885 0 0 Z " fill="#A49C93" transform="translate(1013,376)"/>
<path d="M0 0 C5.71580122 6.66843475 6.29873986 11.45272078 6 20 C3.20209497 17.20209497 3.5884929 14.82020154 3.34375 10.99609375 C3.2303125 10.33738281 3.116875 9.67867188 3 9 C2.34 8.67 1.68 8.34 1 8 C1 7.34 1 6.68 1 6 C-0.65 5.67 -2.3 5.34 -4 5 C-3.34 4.67 -2.68 4.34 -2 4 C-2 3.01 -2 2.02 -2 1 C-1.34 0.67 -0.68 0.34 0 0 Z " fill="#676460" transform="translate(924,471)"/>
<path d="M0 0 C0.33 0 0.66 0 1 0 C1.47840627 4.3585169 1.94188773 8.71828537 2.39160156 13.07983398 C2.54668441 14.5633409 2.70583799 16.04642814 2.86914062 17.52905273 C3.10317356 19.6603222 3.32252379 21.79267233 3.5390625 23.92578125 C3.67521973 25.20880127 3.81137695 26.49182129 3.95166016 27.8137207 C4 31 4 31 2 34 C-1.50486238 23.48541287 -0.1032798 10.97061013 0 0 Z " fill="#D87501" transform="translate(543,824)"/>
<path d="M0 0 C0.66 0.33 1.32 0.66 2 1 C1.38511719 1.70125 0.77023437 2.4025 0.13671875 3.125 C-4.50250642 8.57072523 -8.04338821 13.08663835 -10 20 C-11.52734658 15.33483937 -10.07517812 12.26942384 -8 8 C-5.69818414 4.6586544 -3.35319063 2.27537936 0 0 Z " fill="#CF7409" transform="translate(579,258)"/>
<path d="M0 0 C11.05561292 -0.09920291 21.98906587 -0.12520495 33 1 C33 1.33 33 1.66 33 2 C30.5211787 2.19389096 28.04219069 2.38040123 25.5625 2.5625 C24.85544922 2.61857422 24.14839844 2.67464844 23.41992188 2.73242188 C21.61572163 2.86190993 19.80768048 2.93521608 18 3 C17.67 2.67 17.34 2.34 17 2 C14.14122091 1.76298761 11.30116703 1.57780818 8.4375 1.4375 C7.63119141 1.39431641 6.82488281 1.35113281 5.99414062 1.30664062 C3.99631195 1.20024738 1.9981793 1.09959112 0 1 C0 0.67 0 0.34 0 0 Z " fill="#84B24D" transform="translate(858,928)"/>
<path d="M0 0 C3.57780969 3.29627712 6.33254033 7.29835585 9.24023438 11.17382812 C11.64497037 14.34486846 14.10536093 17.26654732 17 20 C10.97929434 19.27477864 7.61415934 13.37678012 4 9 C0 3.86472149 0 3.86472149 0 0 Z " fill="#E3962D" transform="translate(602,752)"/>
<path d="M0 0 C3.23891184 1.04788324 5.57636566 2.3579313 8.125 4.5625 C10.80604196 7.14217763 10.80604196 7.14217763 14 8 C14 8.66 14 9.32 14 10 C7.80660737 8.70970987 3.84710557 6.0035833 -1 2 C-0.67 1.34 -0.34 0.68 0 0 Z " fill="#8E8A84" transform="translate(760,406)"/>
<path d="M0 0 C1.73773611 2.60660417 2.94001012 5.07879357 4.13671875 7.95703125 C5.4346735 11.02866172 6.83810951 14.05221584 8.23046875 17.08203125 C9 19 9 19 9 21 C8.34 21 7.68 21 7 21 C5.62999799 18.06963123 4.28181448 15.12973086 2.9375 12.1875 C2.54755859 11.35412109 2.15761719 10.52074219 1.75585938 9.66210938 C1.39169922 8.85966797 1.02753906 8.05722656 0.65234375 7.23046875 C0.14175415 6.12288208 0.14175415 6.12288208 -0.37915039 4.99291992 C-1 3 -1 3 0 0 Z " fill="#E6972D" transform="translate(592,729)"/>
<path d="M0 0 C0.66 0.33 1.32 0.66 2 1 C-3.61 6.61 -9.22 12.22 -15 18 C-15.66 17.67 -16.32 17.34 -17 17 C-16.04882866 15.8274869 -15.08882991 14.66212985 -14.125 13.5 C-13.59132813 12.8503125 -13.05765625 12.200625 -12.5078125 11.53125 C-11.76144531 10.77328125 -11.76144531 10.77328125 -11 10 C-10.34 10 -9.68 10 -9 10 C-9 9.34 -9 8.68 -9 8 C-7.28515625 6.30859375 -7.28515625 6.30859375 -5.0625 4.4375 C-4.33160156 3.81746094 -3.60070312 3.19742188 -2.84765625 2.55859375 C-1.93306641 1.78708984 -1.93306641 1.78708984 -1 1 C-0.67 0.67 -0.34 0.34 0 0 Z " fill="#292929" transform="translate(573,729)"/>
<path d="M0 0 C4.03174806 0.27489191 5.56894631 0.53491576 8.375 3.5625 C8.91125 4.366875 9.4475 5.17125 10 6 C6.97580475 5.41196203 3.98241547 4.77321882 1 4 C0.34 5.65 -0.32 7.3 -1 9 C-2.0326802 6.21176345 -2.04509293 5.1322726 -1.0625 2.25 C-0.711875 1.5075 -0.36125 0.765 0 0 Z " fill="#2F2921" transform="translate(754,414)"/>
<path d="M0 0 C3.83990988 1.38375131 6.97052564 3.16309349 10.3125 5.5 C11.19550781 6.1084375 12.07851563 6.716875 12.98828125 7.34375 C13.65214844 7.8903125 14.31601562 8.436875 15 9 C15 9.66 15 10.32 15 11 C11.11886476 10.44555211 9.71136783 8.71136783 7 6 C4.71832952 4.54623587 2.38502881 3.28424628 0 2 C0 1.34 0 0.68 0 0 Z " fill="#515355" transform="translate(764,415)"/>
<path d="M0 0 C6.95041086 -0.26618595 13.23514355 0.3879491 20 2 C20 2.66 20 3.32 20 4 C13.15182898 3.51358785 6.66957927 2.64006048 0 1 C0 0.67 0 0.34 0 0 Z " fill="#AE5E01" transform="translate(783,638)"/>
<path d="M0 0 C2.87557703 -0.08138426 5.74882262 -0.14067851 8.625 -0.1875 C9.43324219 -0.21263672 10.24148438 -0.23777344 11.07421875 -0.26367188 C16.17689316 -0.32589961 19.53139688 0.24508449 24 3 C24 3.66 24 4.32 24 5 C24.66 5.33 25.32 5.66 26 6 C23.525 5.505 23.525 5.505 21 5 C21 4.34 21 3.68 21 3 C19.68 3 18.36 3 17 3 C17 2.34 17 1.68 17 1 C11.39 1 5.78 1 0 1 C0 0.67 0 0.34 0 0 Z " fill="#87735C" transform="translate(886,458)"/>
<path d="M0 0 C4.67105792 1.55701931 8.08705685 4.08447373 12 7 C8.08428299 8.305239 6.96107003 7.32239848 3.3125 5.5625 C2.31863281 5.08941406 1.32476563 4.61632813 0.30078125 4.12890625 C-0.45847656 3.75636719 -1.21773437 3.38382813 -2 3 C-1.34 2.67 -0.68 2.34 0 2 C0 1.34 0 0.68 0 0 Z " fill="#82C43B" transform="translate(705,1560)"/>
<path d="M0 0 C2.5570851 2.22355226 3.24170912 3.75018193 4 7 C4.66 7.33 5.32 7.66 6 8 C6 8.99 6 9.98 6 11 C6.66 11.33 7.32 11.66 8 12 C9.05352843 14.30965848 10.05719096 16.6429774 11 19 C10.01 19 9.02 19 8 19 C6.66042079 16.21128823 5.32941565 13.41856938 4 10.625 C3.6184375 9.8309375 3.236875 9.036875 2.84375 8.21875 C2.4828125 7.45820312 2.121875 6.69765625 1.75 5.9140625 C1.41484375 5.2123291 1.0796875 4.5105957 0.734375 3.78759766 C0 2 0 2 0 0 Z " fill="#C96D02" transform="translate(556,891)"/>
<path d="M0 0 C0.66 0.99 1.32 1.98 2 3 C1.59007812 3.67546875 1.18015625 4.3509375 0.7578125 5.046875 C0.21898437 5.93890625 -0.31984375 6.8309375 -0.875 7.75 C-1.40867187 8.63171875 -1.94234375 9.5134375 -2.4921875 10.421875 C-3.75596666 12.58274093 -4.91498835 14.74570395 -6 17 C-6.66 17 -7.32 17 -8 17 C-6.3341708 10.83643195 -3.12194714 5.51740344 0 0 Z " fill="#C87007" transform="translate(597,635)"/>
<path d="M0 0 C1.19625 0.268125 2.3925 0.53625 3.625 0.8125 C10.07498936 2.24697763 16.53792955 3.62117985 23 5 C23 5.33 23 5.66 23 6 C6.92747875 4.96657224 6.92747875 4.96657224 2 3 C1.34 2.01 0.68 1.02 0 0 Z " fill="#F09C2F" transform="translate(1063,206)"/>
<path d="M0 0 C4.82797319 0.59118039 9.4124011 1.3484644 14 3 C14.33 3.99 14.66 4.98 15 6 C13.68 6 12.36 6 11 6 C11 5.34 11 4.68 11 4 C9.9275 3.87625 8.855 3.7525 7.75 3.625 C4.62136385 3.10356064 2.66519576 2.59911746 0 1 C0 0.67 0 0.34 0 0 Z " fill="#6B6B6B" transform="translate(1007,384)"/>
<path d="M0 0 C-0.33 0.66 -0.66 1.32 -1 2 C-3.765625 2.88671875 -3.765625 2.88671875 -7.25 3.6875 C-8.38953125 3.95949219 -9.5290625 4.23148438 -10.703125 4.51171875 C-13.87345016 4.98125743 -15.94365653 4.85600597 -19 4 C-19 3.67 -19 3.34 -19 3 C-16.39643759 2.49666458 -13.79223349 1.99720622 -11.1875 1.5 C-10.08051758 1.28537109 -10.08051758 1.28537109 -8.95117188 1.06640625 C-5.92205609 0.49073719 -3.090804 0 0 0 Z " fill="#B86708" transform="translate(957,571)"/>
<path d="M0 0 C2.14453125 0.234375 2.14453125 0.234375 4.8125 0.75 C5.68519531 0.90984375 6.55789063 1.0696875 7.45703125 1.234375 C10.18058974 2.05437111 11.84553342 3.17196775 14 5 C10.55663247 4.51792855 7.1528276 4.03232892 3.75 3.3125 C0.78672831 2.67627588 0.78672831 2.67627588 -2 5 C-1.125 1.125 -1.125 1.125 0 0 Z " fill="#DF8E26" transform="translate(1166,709)"/>
<path d="M0 0 C-3.10379157 2.66984914 -5.60958974 3.60357986 -9.625 4.3125 C-11.06746094 4.58513672 -11.06746094 4.58513672 -12.5390625 4.86328125 C-13.35117187 4.90839844 -14.16328125 4.95351563 -15 5 C-15.66 4.34 -16.32 3.68 -17 3 C-11.34507634 0.50518074 -6.15261013 -0.14649072 0 0 Z " fill="#B9690B" transform="translate(602,252)"/>
<path d="M0 0 C-0.33 0.66 -0.66 1.32 -1 2 C-7.46918786 3.31779753 -13.48034669 2.77900269 -20 2 C-20 1.67 -20 1.34 -20 1 C-13.30386804 0.202163 -6.74233419 -0.12910853 0 0 Z " fill="#AF6106" transform="translate(923,577)"/>
<path d="M0 0 C3.40320742 1.01176437 4.75725331 1.64843582 6.8125 4.625 C7.204375 5.40875 7.59625 6.1925 8 7 C4.17902761 6.46930939 1.93828597 5.50298434 -1 3 C-0.67 2.01 -0.34 1.02 0 0 Z " fill="#646362" transform="translate(758,408)"/>
<path d="M0 0 C0.66 0.33 1.32 0.66 2 1 C1.67 1.66 1.34 2.32 1 3 C0.01 3.33 -0.98 3.66 -2 4 C-2 6.97 -2 9.94 -2 13 C-3.95216435 9.09567131 -4.50639991 6.27786748 -5 2 C-2.625 0.9375 -2.625 0.9375 0 0 Z " fill="#B76301" transform="translate(1010,635)"/>
<path d="M0 0 C0.66 0 1.32 0 2 0 C2.50615298 1.26839526 3.00469099 2.53983102 3.5 3.8125 C3.91765625 4.87404297 3.91765625 4.87404297 4.34375 5.95703125 C5 8 5 8 5 11 C4.34 11 3.68 11 3 11 C3 9.35 3 7.7 3 6 C2.34 6 1.68 6 1 6 C1 5.34 1 4.68 1 4 C-0.32 4.33 -1.64 4.66 -3 5 C-1.625 2.5 -1.625 2.5 0 0 Z " fill="#B16001" transform="translate(1130,547)"/>
<path d="M0 0 C0.33 1.65 0.66 3.3 1 5 C0.34 4.67 -0.32 4.34 -1 4 C-1 3.34 -1 2.68 -1 2 C-5.455 3.485 -5.455 3.485 -10 5 C-10.66 4.34 -11.32 3.68 -12 3 C-8.06769671 0.37846447 -4.67664739 0 0 0 Z " fill="#2C2D2D" transform="translate(887,460)"/>
<path d="M0 0 C3.93673644 1.31224548 6.22719294 2.91910327 9 6 C7.68 6.33 6.36 6.66 5 7 C4.67 6.01 4.34 5.02 4 4 C2.35 3.67 0.7 3.34 -1 3 C-0.67 2.01 -0.34 1.02 0 0 Z " fill="#3F4142" transform="translate(756,411)"/>
<path d="M0 0 C0.66 0.33 1.32 0.66 2 1 C1.66354211 4.14027363 0.94763914 5.05098295 -1.375 7.3125 C-2.674375 8.1478125 -2.674375 8.1478125 -4 9 C-4.99 8.67 -5.98 8.34 -7 8 C-4.69 5.36 -2.38 2.72 0 0 Z " fill="#8BD13F" transform="translate(549,906)"/>
<path d="M0 0 C1 4 1 4 0 7 C1.32 6.67 2.64 6.34 4 6 C4 6.99 4 7.98 4 9 C1.69 9.66 -0.62 10.32 -3 11 C-2.01 7.37 -1.02 3.74 0 0 Z " fill="#A15600" transform="translate(779,923)"/>
<path d="M0 0 C1.875 0.25 1.875 0.25 4 1 C5.25 3.0625 5.25 3.0625 6 5 C5.34 5 4.68 5 4 5 C4.33 6.65 4.66 8.3 5 10 C4.01 10.66 3.02 11.32 2 12 C2.33 8.7 2.66 5.4 3 2 C2.01 1.67 1.02 1.34 0 1 C0 0.67 0 0.34 0 0 Z " fill="#CF7205" transform="translate(620,347)"/>
<path d="M0 0 C4.16138263 -0.08159574 7.9472484 0.01751476 12 1 C12 1.66 12 2.32 12 3 C12.66 3.33 13.32 3.66 14 4 C9.03083364 3.48594831 4.70973649 2.76615118 0 1 C0 0.67 0 0.34 0 0 Z " fill="#BA7A24" transform="translate(633,782)"/>
<path d="M0 0 C3.11547441 0.67883043 5.85137721 1.74106902 8.75 3.0625 C9.54921875 3.42472656 10.3484375 3.78695313 11.171875 4.16015625 C11.77515625 4.43730469 12.3784375 4.71445313 13 5 C11.02 5.99 11.02 5.99 9 7 C7.4972763 6.02501855 5.99788037 5.04490611 4.5 4.0625 C3.6646875 3.51722656 2.829375 2.97195313 1.96875 2.41015625 C1.3190625 1.94480469 0.669375 1.47945312 0 1 C0 0.67 0 0.34 0 0 Z " fill="#2F4218" transform="translate(701,1556)"/>
<path d="M0 0 C2.06585532 2.06585532 3.21182288 3.95462834 4.625 6.5 C5.07101562 7.2940625 5.51703125 8.088125 5.9765625 8.90625 C7 11 7 11 7 13 C4 12 4 12 2.83203125 10.29296875 C2.49558594 9.59816406 2.15914062 8.90335938 1.8125 8.1875 C1.46832031 7.50042969 1.12414062 6.81335938 0.76953125 6.10546875 C0 4 0 4 0 0 Z " fill="#BB6501" transform="translate(587,751)"/>
<path d="M0 0 C4.3177458 0.50797009 8.03302114 1.19682779 12 3 C12 3.66 12 4.32 12 5 C7.43545749 4.45660208 4.0271824 3.20536179 0 1 C0 0.67 0 0.34 0 0 Z " fill="#BA6501" transform="translate(740,624)"/>
<path d="M0 0 C2.20914 3.31371 2.22481553 4.3446021 2.125 8.1875 C2.10695313 9.08855469 2.08890625 9.98960937 2.0703125 10.91796875 C2.03550781 11.94857422 2.03550781 11.94857422 2 13 C-0.36453193 10.63546807 -0.36652704 9.74130071 -0.6875 6.5 C-0.77386719 5.7059375 -0.86023438 4.911875 -0.94921875 4.09375 C-1 2 -1 2 0 0 Z " fill="#65513A" transform="translate(928,478)"/>
<path d="M0 0 C4.28806873 0.47645208 6.26647487 1.65902484 9 5 C9 5.66 9 6.32 9 7 C4.58110387 5.64978174 2.65654657 3.73884332 0 0 Z " fill="#BEB3A6" transform="translate(766,406)"/>
<path d="M0 0 C0.66 0.33 1.32 0.66 2 1 C-1.3 4.3 -4.6 7.6 -8 11 C-8 6.67750434 -5.85084926 5.11604454 -3 2 C-2.01 1.34 -1.02 0.68 0 0 Z " fill="#292929" transform="translate(570,248)"/>
<path d="M0 0 C2.40034102 3.60051153 4.32187705 6.96144535 3.625 11.375 C3.41875 11.91125 3.2125 12.4475 3 13 C0.89172945 9.83759418 0.66182535 8.49342531 0.375 4.8125 C0.30023437 3.91144531 0.22546875 3.01039063 0.1484375 2.08203125 C0.09945313 1.39496094 0.05046875 0.70789063 0 0 Z " fill="#CB8527" transform="translate(1122,321)"/>
<path d="M0 0 C0 0.66 0 1.32 0 2 C-1.32 2 -2.64 2 -4 2 C-4 2.66 -4 3.32 -4 4 C-5.98 4.66 -7.96 5.32 -10 6 C-10.66 5.34 -11.32 4.68 -12 4 C-10.3767313 3.3291288 -8.75132422 2.66342971 -7.125 2 C-6.22007812 1.62875 -5.31515625 1.2575 -4.3828125 0.875 C-2 0 -2 0 0 0 Z " fill="#B56201" transform="translate(1025,630)"/>
<path d="M0 0 C2.5 0.125 2.5 0.125 3.5 1.125 C5.82817964 1.49260731 8.1618385 1.82741581 10.5 2.125 C10.5 2.455 10.5 2.785 10.5 3.125 C8.91705218 3.17937607 7.33355744 3.21796271 5.75 3.25 C4.86828125 3.27320313 3.9865625 3.29640625 3.078125 3.3203125 C0.3864142 3.11639502 -1.19904974 2.49051721 -3.5 1.125 C-2.5 0.125 -2.5 0.125 0 0 Z " fill="#A05702" transform="translate(850.5,564.875)"/>
<path d="M0 0 C1.44010481 0.25662245 2.8770687 0.53090821 4.3125 0.8125 C5.11300781 0.96332031 5.91351562 1.11414063 6.73828125 1.26953125 C9.23445587 2.07572236 10.32422106 3.02052002 12 5 C7.43545749 4.45660208 4.0271824 3.20536179 0 1 C0 0.67 0 0.34 0 0 Z " fill="#B36202" transform="translate(825,559)"/>
<path d="M0 0 C2.475 0.495 2.475 0.495 5 1 C5 4.63 5 8.26 5 12 C4.67 12 4.34 12 4 12 C3.896875 10.906875 3.79375 9.81375 3.6875 8.6875 C3.00272798 5.01463192 2.72080696 4.24762314 0 2 C0 1.34 0 0.68 0 0 Z " fill="#201D1B" transform="translate(1018,397)"/>
<path d="M0 0 C0.33 0.99 0.66 1.98 1 3 C-1.31 4.98 -3.62 6.96 -6 9 C-6.66 8.67 -7.32 8.34 -8 8 C-6.71034824 6.62437146 -5.37310707 5.29233607 -4 4 C-3.34 4 -2.68 4 -2 4 C-1.34 2.68 -0.68 1.36 0 0 Z " fill="#C76C01" transform="translate(1193,929)"/>
<path d="M0 0 C0.99 0.495 0.99 0.495 2 1 C3.425 8.3625 3.425 8.3625 1 12 C0.03929566 9.11788698 -0.10581883 7.30149956 -0.0625 4.3125 C-0.05347656 3.50425781 -0.04445313 2.69601562 -0.03515625 1.86328125 C-0.02355469 1.24839844 -0.01195312 0.63351562 0 0 Z " fill="#B96401" transform="translate(544,846)"/>
<path d="M0 0 C0.66 0.33 1.32 0.66 2 1 C-0.97 3.97 -3.94 6.94 -7 10 C-7 7 -7 7 -4.625 4.4375 C-3.75875 3.633125 -2.8925 2.82875 -2 2 C-1.34 1.34 -0.68 0.68 0 0 Z " fill="#221506" transform="translate(873,464)"/>
<path d="M0 0 C0.66666667 1.33333333 1.33333333 2.66666667 2 4 C2.8353125 5.546875 2.8353125 5.546875 3.6875 7.125 C4.120625 8.07375 4.55375 9.0225 5 10 C4.67 10.66 4.34 11.32 4 12 C2.29159719 10.36587557 1.06546953 9.13093906 0 7 C-0.04022391 4.6670134 -0.04320247 2.33293334 0 0 Z " fill="#BE6906" transform="translate(752,439)"/>
<path d="M0 0 C4.43090471 1.20842856 6.98112756 2.51668565 10 6 C8.5164999 5.57742724 7.03823576 5.13643678 5.5625 4.6875 C4.73878906 4.44386719 3.91507813 4.20023437 3.06640625 3.94921875 C2.04353516 3.47935547 2.04353516 3.47935547 1 3 C0.67 2.01 0.34 1.02 0 0 Z " fill="#2E3337" transform="translate(999,387)"/>
<path d="M0 0 C1.12894876 0.93274109 2.25300876 1.87140122 3.375 2.8125 C4.00148438 3.33457031 4.62796875 3.85664062 5.2734375 4.39453125 C7 6 7 6 9 9 C4.74822077 8.52758009 2.70030797 6.15035929 0 3 C0 2.01 0 1.02 0 0 Z " fill="#DA902A" transform="translate(610,763)"/>
<path d="M0 0 C0.99 0.33 1.98 0.66 3 1 C-0.465 3.97 -0.465 3.97 -4 7 C-4.66 6.67 -5.32 6.34 -6 6 C-4.02 4.02 -2.04 2.04 0 0 Z " fill="#CA6E01" transform="translate(1046,755)"/>
<path d="M0 0 C0.78375 0.04125 1.5675 0.0825 2.375 0.125 C2.375 0.785 2.375 1.445 2.375 2.125 C4.355 2.125 6.335 2.125 8.375 2.125 C8.375 2.455 8.375 2.785 8.375 3.125 C3.85882401 3.20154536 -0.21585217 3.22728696 -4.625 2.125 C-2.625 0.125 -2.625 0.125 0 0 Z " fill="#A05601" transform="translate(807.625,640.875)"/>
<path d="M0 0 C3.73487777 0.4979837 5.81237635 0.87491756 9 3 C9 3.66 9 4.32 9 5 C5.22454612 3.90931332 2.52956528 3.0916909 0 0 Z " fill="#B76301" transform="translate(716,613)"/>
<path d="M0 0 C1.31896465 0.92838287 2.62998689 1.86805732 3.9375 2.8125 C4.66839844 3.33457031 5.39929688 3.85664062 6.15234375 4.39453125 C8 6 8 6 9 9 C5.18063472 7.44396229 2.73955562 5.04395069 0 2 C0 1.34 0 0.68 0 0 Z " fill="#C96D01" transform="translate(672,581)"/>
<path d="M0 0 C1.65 0 3.3 0 5 0 C5 0.66 5 1.32 5 2 C6.32 2 7.64 2 9 2 C9 2.66 9 3.32 9 4 C9.66 4.33 10.32 4.66 11 5 C6.87248551 4.39301257 3.6678852 2.96189209 0 1 C0 0.67 0 0.34 0 0 Z " fill="#6B6C6C" transform="translate(898,459)"/>
<path d="M0 0 C2.875 0.25 2.875 0.25 6 1 C7.375 3.0625 7.375 3.0625 8 5 C4.20411134 4.45773019 2.52788007 2.79872437 0 0 Z " fill="#A9A5A0" transform="translate(762,406)"/>
<path d="M0 0 C-3.79692186 2.82561627 -6.18569279 4.56638908 -11 4 C-3.77464789 -1.88732394 -3.77464789 -1.88732394 0 0 Z " fill="#BB731A" transform="translate(723,209)"/>
<path d="M0 0 C0.98484375 0.00902344 1.9696875 0.01804688 2.984375 0.02734375 C4.10585938 0.04474609 4.10585938 0.04474609 5.25 0.0625 C5.25 0.3925 5.25 0.7225 5.25 1.0625 C2.27148438 1.40429688 2.27148438 1.40429688 -0.70703125 1.74609375 C-2.94396393 2.03420735 -2.94396393 2.03420735 -5.75 3.0625 C-7.9375 2.125 -7.9375 2.125 -9.75 1.0625 C-6.43929162 0.06140485 -3.44915231 -0.04106134 0 0 Z " fill="#F6A02F" transform="translate(821.75,184.9375)"/>
<path d="M0 0 C2.31 1.98 4.62 3.96 7 6 C6.34 6.66 5.68 7.32 5 8 C2.5 5.6875 2.5 5.6875 0 3 C0 2.01 0 1.02 0 0 Z " fill="#8AD13F" transform="translate(567,1463)"/>
<path d="M0 0 C0.66 0 1.32 0 2 0 C5 5.75 5 5.75 5 8 C2 7 2 7 0.8125 5.125 C0 3 0 3 0 0 Z " fill="#D08423" transform="translate(752,798)"/>
<path d="M0 0 C1.953125 0.35807292 3.90625 0.71614583 5.859375 1.07421875 C5.859375 1.40421875 5.859375 1.73421875 5.859375 2.07421875 C-0.080625 2.56921875 -0.080625 2.56921875 -6.140625 3.07421875 C-2.140625 0.07421875 -2.140625 0.07421875 0 0 Z " fill="#D2760A" transform="translate(939.140625,564.92578125)"/>
<path d="M0 0 C0.33 0 0.66 0 1 0 C2.12029814 5.48946087 1.79217969 8.83430559 0 14 C-0.33 14 -0.66 14 -1 14 C-1.08333357 9.1666528 -0.95261487 4.76307437 0 0 Z " fill="#A65B02" transform="translate(619,374)"/>
<path d="M0 0 C1.54571278 2.31856917 2.79618552 4.50638429 4 7 C3.01 8.485 3.01 8.485 2 10 C1.01 7.03 0.02 4.06 -1 1 C-0.67 0.67 -0.34 0.34 0 0 Z " fill="#DA8F2B" transform="translate(592,729)"/>
<path d="M0 0 C3.3 0.33 6.6 0.66 10 1 C10 1.66 10 2.32 10 3 C5.06071112 3.3367697 4.21507278 3.16130459 0 0 Z " fill="#C66B01" transform="translate(793,639)"/>
<path d="M0 0 C5.66153846 1.47692308 5.66153846 1.47692308 7.375 4.125 C7.684375 5.053125 7.684375 5.053125 8 6 C4.74456771 5.65120368 3.98126893 4.97866739 1.75 2.4375 C1.1725 1.633125 0.595 0.82875 0 0 Z " fill="#3B3F42" transform="translate(765,418)"/>
<path d="M0 0 C2.7972908 2.06756277 3.02692273 3.14440371 3.6875 6.6875 C3.790625 7.780625 3.89375 8.87375 4 10 C1.16625119 6.79663178 0.4794463 4.21912747 0 0 Z " fill="#DA902B" transform="translate(1229,762)"/>
</svg>
